<svg width="141" height="141" viewBox="0 0 141 141" fill="none" xmlns="http://www.w3.org/2000/svg">
<path d="M92.6491 0C107.541 1.30014e-06 119.322 4.70628 127.993 14.1188C136.664 23.5314 141 37.4933 141 56.0047V84.9012C141 103.35 136.664 117.312 127.993 126.787C119.322 136.262 107.604 141 92.8376 141C78.1972 141 66.5414 136.262 57.8703 126.787C49.1364 117.312 44.7694 103.35 44.7694 84.9012V56.0047C44.7694 37.4933 49.1049 23.5314 57.7761 14.1188C66.3844 4.70627 78.0087 -1.27819e-06 92.6491 0ZM92.6491 25.1315C87.8108 25.1315 84.1036 27.3278 81.5274 31.7203C78.9512 36.1756 77.6631 43.6429 77.6631 54.1222L77.6631 86.972C77.6631 97.263 78.9826 104.636 81.6217 109.091C84.2607 113.547 87.9993 115.774 92.8376 115.774C97.8643 115.774 101.666 113.547 104.242 109.091C106.818 104.699 108.106 97.3258 108.106 86.972V54.1222C108.106 43.5801 106.818 36.1128 104.242 31.7203C101.666 27.3278 97.8015 25.1315 92.6491 25.1315Z" fill="#E6E1E0"/>
<path d="M32.8937 1.97663V29.273L6.51761e-06 29.273L8.90713e-06 1.97663L32.8937 1.97663ZM32.8937 76.4299L32.8937 103.726L0 103.726L2.38952e-06 76.4299H32.8937Z" fill="#E6E1E0"/>
</svg>
