<svg width="150" height="131" viewBox="0 0 150 131" fill="none" xmlns="http://www.w3.org/2000/svg">
<path d="M0 0V26.092H31.5552V0H0ZM0 71.1683V97.2603H31.5552V71.1683H0Z" fill="#E6E1E0"/>
<path d="M101.808 55.693H67.9024L67.7215 76.3867H95.208C100.151 76.3867 104.099 76.9265 107.052 78.0062C110.006 79.1458 112.146 80.7953 113.472 82.9547C114.858 85.114 115.552 87.8132 115.552 91.0522C115.552 94.7711 114.858 97.7701 113.472 100.049C112.086 102.329 109.885 103.978 106.872 104.998C103.918 106.078 100.09 106.617 95.3888 106.617H79.8372V0H48.1013V131H95.3888C103.526 131 110.79 130.25 117.179 128.751C123.568 127.311 128.993 125.092 133.454 122.093C137.975 119.094 141.41 115.315 143.761 110.756C146.112 106.258 147.288 100.949 147.288 94.831C147.288 89.4927 146.142 84.4842 143.852 79.8056C141.561 75.1271 137.734 71.3182 132.369 68.3791C127.064 65.5 119.801 64.0005 110.579 63.8805L101.808 55.693ZM100.542 0H60.217L71.0669 24.2926H100.542C104.882 24.2926 108.348 24.9524 110.94 26.272C113.593 27.6516 115.491 29.451 116.637 31.6703C117.842 33.9496 118.445 36.4689 118.445 39.228C118.445 42.587 117.872 45.4961 116.727 47.9554C115.642 50.4146 113.894 52.304 111.483 53.6236C109.072 55.0032 105.847 55.693 101.808 55.693H75.1356L75.3165 76.3867H107.233L114.647 68.1092C123.448 68.4691 130.41 67.2395 135.533 64.4203C140.717 61.6012 144.424 57.8823 146.655 53.2637C148.885 48.6451 150 43.8166 150 38.7782C150 30.2008 148.131 23.033 144.394 17.2747C140.717 11.5165 135.202 7.1978 127.848 4.31868C120.494 1.43956 111.392 0 100.542 0Z" fill="#E6E1E0"/>
</svg>
