<svg width="298" height="157" viewBox="0 0 298 157" fill="none" xmlns="http://www.w3.org/2000/svg">
<path d="M248.5 78L247.603 76.798C247.184 77.1109 246.958 77.6195 247.007 78.1402C247.055 78.6609 247.372 79.1186 247.842 79.348L248.5 78ZM267.5 106.5L268.998 106.415L267.5 106.5ZM215.915 132.527L216.427 131.117C215.857 130.91 215.219 131.066 214.809 131.513L215.915 132.527ZM162.589 144.561L162.574 146.061L162.589 144.561ZM145.956 144.535L145.966 146.035L145.956 144.535ZM117.999 143.4L116.5 143.412C116.506 144.147 117.044 144.77 117.77 144.882L117.999 143.4ZM100.016 128.429L98.5471 128.734C98.7085 129.51 99.4459 130.027 100.23 129.913L100.016 128.429ZM69.3917 128.069L68.7408 129.42C69.1508 129.617 69.6283 129.618 70.0388 129.422C70.4494 129.225 70.7486 128.853 70.8523 128.41L69.3917 128.069ZM78.9184 55.2533L79.225 56.7216C79.6637 56.63 80.0384 56.3471 80.2467 55.9503C80.4549 55.5534 80.4748 55.0843 80.3009 54.6713L78.9184 55.2533ZM166.607 18.8168L165.486 19.8134C165.759 20.121 166.147 20.3027 166.558 20.316C166.97 20.3293 167.369 20.173 167.661 19.8836L166.607 18.8168ZM229.575 38.0419L228.088 38.2419C228.133 38.5758 228.289 38.8849 228.531 39.1193L229.575 38.0419ZM229.961 38.4164L228.915 39.4916C229.195 39.764 229.57 39.9164 229.961 39.9164V38.4164ZM229.626 38.4304L228.138 38.6175C228.232 39.3677 228.87 39.9304 229.626 39.9304V38.4304ZM229.624 38.4177L230.936 37.6898C230.587 37.0613 229.841 36.7686 229.158 36.9919C228.475 37.2152 228.046 37.8917 228.136 38.6049L229.624 38.4177ZM249.397 79.202C251.899 77.3344 254.026 73.728 255.524 69.5504C257.042 65.316 258 60.2606 258 55.2533H255C255 59.9016 254.107 64.615 252.7 68.5377C251.273 72.5172 249.4 75.4564 247.603 76.798L249.397 79.202ZM268.998 106.415C268.305 94.1711 261.208 82.5336 249.158 76.652L247.842 79.348C258.876 84.7337 265.368 95.379 266.002 106.585L268.998 106.415ZM215.403 133.936C226.019 137.791 239.668 137.919 250.538 133.649C255.99 131.508 260.811 128.232 264.173 123.69C267.55 119.128 269.391 113.372 268.998 106.415L266.002 106.585C266.359 112.878 264.7 117.935 261.762 121.905C258.809 125.894 254.499 128.87 249.441 130.857C239.289 134.844 226.396 134.736 216.427 131.117L215.403 133.936ZM162.574 146.061C173.614 146.172 184.231 146.284 193.519 144.78C202.833 143.272 211 140.113 217.021 133.54L214.809 131.513C209.419 137.398 201.999 140.368 193.04 141.819C184.055 143.273 173.715 143.173 162.604 143.061L162.574 146.061ZM153.5 146C156.555 146 159.582 146.031 162.574 146.061L162.604 143.061C159.614 143.031 156.572 143 153.5 143V146ZM145.966 146.035C148.429 146.018 150.939 146 153.5 146V143C150.927 143 148.406 143.018 145.945 143.035L145.966 146.035ZM117.77 144.882C126.155 146.178 135.667 146.107 145.966 146.035L145.945 143.035C135.578 143.108 126.327 143.169 118.229 141.917L117.77 144.882ZM102.336 129.762C110.156 129.762 116.438 135.899 116.5 143.412L119.499 143.387C119.424 134.157 111.732 126.762 102.336 126.762V129.762ZM100.23 129.913C100.917 129.814 101.62 129.762 102.336 129.762V126.762C101.476 126.762 100.629 126.824 99.8009 126.944L100.23 129.913ZM84.6639 117.713C91.5455 117.713 97.2452 122.472 98.5471 128.734L101.484 128.123C99.8881 120.446 92.9426 114.713 84.6639 114.713V117.713ZM70.8523 128.41C72.2799 122.309 77.9019 117.713 84.6639 117.713V114.713C76.5279 114.713 69.6808 120.25 67.9312 127.727L70.8523 128.41ZM45.5 93.2733C45.5 109.118 54.9839 122.795 68.7408 129.42L70.0426 126.717C57.2371 120.55 48.5 107.872 48.5 93.2733H45.5ZM78.6118 53.7849C59.7187 57.73 45.5 73.8676 45.5 93.2733H48.5C48.5 75.4017 61.6081 60.4002 79.225 56.7216L78.6118 53.7849ZM74.7528 42.2623C74.7528 47.0148 75.7466 51.5844 77.5359 55.8352L80.3009 54.6713C78.657 50.7659 77.7528 46.5908 77.7528 42.2623H74.7528ZM126.091 0.5C98.0556 0.5 74.7528 18.9104 74.7528 42.2623H77.7528C77.7528 21.1337 99.0826 3.5 126.091 3.5V0.5ZM167.728 17.8203C158.37 7.29266 143.179 0.5 126.091 0.5V3.5C142.415 3.5 156.756 9.99263 165.486 19.8134L167.728 17.8203ZM194.297 5.88138C183.107 5.88138 172.964 10.4241 165.552 17.75L167.661 19.8836C174.541 13.0834 183.937 8.88138 194.297 8.88138V5.88138ZM231.062 37.8419C229.71 27.7953 225.766 19.7676 219.449 14.2565C213.133 8.7457 204.594 5.88138 194.297 5.88138V8.88138C204.033 8.88138 211.82 11.5809 217.477 16.5171C223.134 21.4531 226.812 28.7557 228.088 38.2419L231.062 37.8419ZM231.007 37.3412C230.869 37.207 230.74 37.0815 230.619 36.9645L228.531 39.1193C228.65 39.2347 228.778 39.3586 228.915 39.4916L231.007 37.3412ZM258 55.2533C258 49.5634 253.301 44.9674 247.86 41.9066C242.324 38.7927 235.438 36.9164 229.961 36.9164V39.9164C234.867 39.9164 241.251 41.6307 246.389 44.5213C251.622 47.465 255 51.2874 255 55.2533H258ZM231.114 38.2434C231.114 38.2399 231.113 38.2366 231.113 38.2346C231.113 38.2322 231.113 38.2313 231.113 38.2305L228.136 38.6049C228.142 38.6562 228.132 38.5723 228.138 38.6175L231.114 38.2434ZM228.313 39.1456C228.31 39.1406 228.182 38.9281 228.141 38.6256C228.122 38.4795 228.081 38.0192 228.403 37.5637C228.781 37.0296 229.336 36.9304 229.626 36.9304V39.9304C229.918 39.9304 230.474 39.8307 230.853 39.2955C231.175 38.839 231.135 38.377 231.115 38.2288C231.074 37.922 230.943 37.7031 230.936 37.6898L228.313 39.1456Z" fill="#CFC4C6"/>
<path d="M214.5 75.9999C224.5 75.5999 233 81.4999 234.5 88.0121C237.5 86.3454 248.5 88.0121 250 94.9999" stroke="#141312" stroke-width="3" stroke-linecap="round" stroke-linejoin="round"/>
<path d="M124 96C132.797 105.366 161.498 110.375 175 96" stroke="#CFC4C6" stroke-width="5" stroke-linecap="round" stroke-linejoin="round"/>
<path d="M175 87C175 97.7766 178.233 107 189 107" stroke="#CFC4C6" stroke-width="5" stroke-linecap="round" stroke-linejoin="round"/>
<path d="M134 65V77" stroke="#CFC4C6" stroke-width="6" stroke-linecap="round" stroke-linejoin="round"/>
<path d="M162 65V77" stroke="#CFC4C6" stroke-width="6" stroke-linecap="round" stroke-linejoin="round"/>
<path d="M264 139L265 126.5L265.5 105L263 103L264.5 82.5H255L244 79.5L241 76.5L238.5 77L235.5 85.5L236.5 76.5L233.5 73.5L233 69.5V66.5L234 63.5L237.5 63L239 52L242.5 53L241 63.5L244 65L245.5 68L250.5 67L264.5 68L256 59.5L247 47L243 34.5L244 30.5L242 28.5L241 29L238 26L239 24.5V19L243 16.5H246V15L248 14L250.5 16.5L257.5 12.5L254 6L260 2L266.5 14L261 16.5L260 15L252 20V26L254 26.5L257.5 37L261 40.5V38C261.333 37.6667 262.1 37 262.5 37C262.9 37 264.667 35.6667 265.5 35L269.5 34.5H275.5L281.5 37L284.5 39.5L289.5 42.5L290.5 46.5L288 49.5L285.5 51L284.5 53.5L286.5 54.5L287 59.5L289.5 62.5L292.5 74L295 90.5V101L293.5 104L289.5 105.5L295 138.5L295.5 147L296.5 151V154L293 155L289.5 153.5L288.5 154L284 155L281 153.5L277.5 155H273L270 153.5L268 155L263.5 154H259.5L257 153.5V151L259.5 148.5L260.5 143.5L264 139Z" fill="#E6E1E0"/>
<path d="M264.5 138.5C266 139.5 270.3 141.5 275.5 141.5" stroke="#141312" stroke-width="2" stroke-linecap="round"/>
<path d="M280 139.5C281.5 140.5 289.3 142.5 294.5 142.5" stroke="#141312" stroke-width="2" stroke-linecap="round"/>
<path d="M263.928 30.5659C262.289 31.3168 261.322 34.2004 261.185 38.2292C261.448 36.5834 266.1 35.2383 274 36.5C278.424 37.2066 282.08 38.3389 284.188 39.5053C285.7 40.3417 287.265 41.8213 288.926 42.2966L291.797 43.1183C294.482 38.99 292.677 35.495 292.15 34.567C292.661 25.0281 286.657 24.5756 286.143 21.4554C285.629 18.3353 284.72 17.6838 283.239 17.4473C281.758 17.2107 280.297 20.0154 276.762 19.9572C267.362 20.4812 264.289 27.248 263.928 30.5659Z" fill="#141312" stroke="#E6E1E0" stroke-width="2" stroke-linecap="round" stroke-linejoin="round"/>
<circle cx="263.875" cy="43" r="4" stroke="#141312" stroke-width="2"/>
<circle cx="275.875" cy="43" r="4" stroke="#141312" stroke-width="2"/>
<path d="M272.209 51.6841C273.375 52.5 277.375 51.6841 278.375 50.5" stroke="#141312" stroke-width="2" stroke-linecap="round"/>
<path fill-rule="evenodd" clip-rule="evenodd" d="M290.8 42.3472C291.49 43.0462 291.875 44.028 291.875 45.265C291.875 47.6649 290.772 49.2214 289.363 50.1339C288.293 50.8277 287.079 51.1324 286.1 51.2288C285.234 53.3873 283.786 55.0503 281.82 56.1859C279.682 57.4209 276.99 58 273.875 58C270.897 58 267.838 56.9226 265.509 55.1C263.175 53.2739 261.5 50.6316 261.5 47.5C261.5 46.9477 261.948 46.5 262.5 46.5C263.052 46.5 263.5 46.9477 263.5 47.5C263.5 49.8684 264.762 51.9761 266.741 53.525C268.725 55.0774 271.353 56 273.875 56C276.76 56 279.075 55.4616 280.819 54.4541C282.543 53.4582 283.766 51.9729 284.44 49.9487L284.668 49.2649H285.389C286.176 49.2649 287.341 49.0608 288.276 48.4554C289.152 47.8877 289.875 46.9442 289.875 45.265C289.875 44.4623 289.637 44.0162 289.376 43.7518C289.098 43.4701 288.688 43.2883 288.182 43.2183C287.676 43.1482 287.147 43.2018 286.731 43.3201C286.524 43.379 286.373 43.4463 286.281 43.5014C286.262 43.5128 286.248 43.5223 286.237 43.5296C285.968 43.9628 285.407 44.1272 284.942 43.8944C284.448 43.6474 284.248 43.0468 284.495 42.5528C284.681 42.1803 285.001 41.9362 285.256 41.7844C285.532 41.6195 285.852 41.491 286.183 41.3967C286.843 41.2085 287.654 41.126 288.457 41.2372C289.26 41.3486 290.128 41.6656 290.8 42.3472ZM286.215 43.5473C286.215 43.5473 286.216 43.5462 286.218 43.544C286.216 43.5463 286.215 43.5473 286.215 43.5473Z" fill="#141312"/>
<rect x="264" y="41.5" width="2" height="4" rx="1" fill="#141312"/>
<rect x="274" y="41.5" width="2" height="4" rx="1" fill="#141312"/>
<path d="M270.889 42.7646C268.375 42.7646 267.875 46.0001 270.375 47.5001" stroke="#141312" stroke-width="2" stroke-linecap="round"/>
<path d="M268.389 42.7646H272.389" stroke="#141312" stroke-width="2"/>
<path d="M280 41.5L286 41.5" stroke="#141312" stroke-width="2" stroke-linecap="round"/>
<path d="M264.375 83L262.755 101.395C262.663 102.446 263.377 103.399 264.413 103.604V103.604C265.418 103.803 266.125 104.708 266.076 105.731L264.519 138.023C264.433 139.79 263.089 141.19 261.735 142.327C260.261 143.564 259.285 145.606 260.067 148.596C260.958 152 271 150.425 271 149.5" stroke="#141312" stroke-width="2" stroke-linecap="round" stroke-linejoin="round"/>
<path d="M277.554 106V137.917C277.554 139.757 276.177 141.257 274.799 142.476C273.39 143.722 272.485 145.735 273.247 148.646C274.006 151.757 284.694 151.251 290.046 150.411C291.881 150.123 294.748 149.379 295.352 147.622C296.255 144.995 295.162 139.292 293.054 127C290.654 113 290 106.667 290 105" stroke="#141312" stroke-width="2" stroke-linecap="round" stroke-linejoin="round"/>
<path d="M271 57C269.4 57 269.875 59 269.875 60.5M284.5 53.5C287.5 54.5 286.833 58.0101 287 59.5101C291.167 62.5101 295 83 295 101C295 103.8 291 104.5 289 105" stroke="#141312" stroke-width="2" stroke-linecap="round" stroke-linejoin="round"/>
<path d="M268.875 105C274.241 105.946 285.948 105.946 288.875 105" stroke="#141312" stroke-width="2" stroke-linecap="round"/>
<path d="M259.375 148.5C258.375 148.833 256.475 150.1 256.875 152.5C257.275 154.9 261.875 154.167 263.375 153.5C264.541 154.667 267 155.5 270.5 153.5" stroke="#141312" stroke-width="2" stroke-linecap="round" stroke-linejoin="round"/>
<path d="M272.554 148.55C271.554 148.883 269.654 150.15 270.054 152.55C270.454 154.95 277 156.5 280.554 153.55C281.721 154.716 285.9 156.35 289.5 153.55C290.833 154.716 299.5 157 295.5 148" stroke="#141312" stroke-width="2" stroke-linecap="round" stroke-linejoin="round"/>
<path d="M268.25 135.625C270.113 136.084 272.182 136.875 274.125 136.875" stroke="#141312" stroke-width="2" stroke-linecap="round"/>
<path d="M281.429 135.675C283.292 136.134 285.362 136.925 287.304 136.925" stroke="#141312" stroke-width="2" stroke-linecap="round"/>
<path d="M264 142.125C265.572 143.041 267.57 144.58 269.458 144.625C270.515 144.65 271.018 144.408 271.847 143.778C272.391 143.364 272.995 143.085 273.625 142.875" stroke="#141312" stroke-width="2" stroke-linecap="round"/>
<path d="M277.179 142.175C278.751 143.09 280.749 144.63 282.638 144.675C283.694 144.7 284.197 144.457 285.027 143.827C285.571 143.414 286.174 143.135 286.804 142.925" stroke="#141312" stroke-width="2" stroke-linecap="round"/>
<path d="M272 57.5C272.397 58.9884 272 61.9555 272 63.5" stroke="#141312" stroke-width="2" stroke-linecap="round"/>
<path d="M278.16 23.0919C276.763 23.876 275.086 24.9046 274.813 26.6081" stroke="#E6E1E0" stroke-width="2" stroke-linecap="round"/>
<path d="M272.473 23.8292C271.346 24.1992 270.895 24.9877 270.72 26.081" stroke="#E6E1E0" stroke-width="2" stroke-linecap="round"/>
<path d="M271.912 32.0943C271.584 32.2062 271.497 32.316 271.443 32.6523" stroke="#E6E1E0" stroke-width="2" stroke-linecap="round"/>
<path d="M266.452 32.9944L266.412 33.2413" stroke="#E6E1E0" stroke-width="2" stroke-linecap="round"/>
<path d="M289.663 37.4609C289.877 37.952 290.005 38.4864 289.92 39.021" stroke="#E6E1E0" stroke-width="2" stroke-linecap="round"/>
<path d="M241.5 28.5001C245.445 32.5001 253.51 28.6492 252.125 22.2367C251.017 19.1285 250.008 14.0195 247 14.5001C245.19 14.7893 245.405 17.087 246 17.0001C243 16.0001 236.5 18.8945 239 24.0001" stroke="#141312" stroke-width="2" stroke-linecap="round" stroke-linejoin="round"/>
<path d="M236.65 70.0125C236.746 70.2021 236.829 70.2787 236.972 70.415" stroke="#141312" stroke-width="2" stroke-linecap="round"/>
<path d="M279.916 59.4844C272.723 62.0853 268.524 67.7746 263.011 68.0998C257.498 68.425 247.014 65.9599 245.483 69.2244M241.582 76.8914C243.092 80.2033 255.187 83.9426 266.655 82.2144C275.555 80.8732 280.185 79.1641 281.264 78.4958" stroke="#141312" stroke-width="2" stroke-linecap="round" stroke-linejoin="round"/>
<path d="M245 30C243 32 243 33.5 243.5 36.5C244.28 41.1789 250 56 264.5 67.5" stroke="#141312" stroke-width="2" stroke-linecap="round" stroke-linejoin="round"/>
<path d="M252.5 26.4999C254.5 24.9999 255.5 36.4998 261 39.9998" stroke="#141312" stroke-width="2" stroke-linecap="round" stroke-linejoin="round"/>
<path d="M237.542 67.2661C237.828 67.3725 238.108 67.4122 238.37 67.5739" stroke="#141312" stroke-width="2" stroke-linecap="round"/>
<path d="M250.5 17L257.5 12.5L253.5 6L260 2L266.5 13.5L261 16.5L260 15L252 20M247.5 23.5L240.5 28.5L238 26L240.5 24" stroke="#141312" stroke-width="2" stroke-linecap="round" stroke-linejoin="round"/>
<path d="M240 23.5C242 24.5 245 23.5 245.5 22.5" stroke="#141312" stroke-width="2" stroke-linecap="round" stroke-linejoin="round"/>
<path d="M239.625 19.125C240.811 20.0104 241.527 20.7444 242.208 22.0972C242.349 22.3761 242.48 23.2401 242.75 23.375" stroke="#141312" stroke-width="2" stroke-linecap="round"/>
<path d="M243 18C243.82 18.8551 245.072 20.0366 245.375 21.25" stroke="#141312" stroke-width="2" stroke-linecap="round"/>
<path d="M245.25 16.75C245.704 16.75 245.967 17.0464 246.25 17.375C246.709 17.9091 247.52 18.5595 247.75 19.25" stroke="#141312" stroke-width="2" stroke-linecap="round"/>
<path d="M237.863 62.2825C237.804 61.887 238.823 55.2275 239.34 51.9471L242.53 52.9833L240.559 63.3932M237.863 76.1534L235.358 85.9199L236.414 76.1534" stroke="#E6E1E0" stroke-width="2" stroke-linecap="round" stroke-linejoin="round"/>
<path d="M264 30.5001C266 29.0001 268.47 27.6169 274 28.5001C279.53 29.3833 287.483 33.1464 288.694 34.015" stroke="#E6E1E0" stroke-width="2" stroke-linecap="round" stroke-linejoin="round"/>
<path d="M249.967 19.8098C248.856 19.9078 247.557 20.1493 246.757 21.0035C246.444 21.3373 246.021 22.1131 246.203 22.5992C246.54 23.4942 247.912 23.5482 248.761 23.6744" stroke="#141312" stroke-width="2" stroke-linecap="round"/>
<path d="M233.15 65.0152C234.716 62.402 239.098 63.0092 242.191 64.1584C247.994 67.2193 244.473 74.1532 242.162 76.3121C241.625 76.7413 239.211 77.1017 237.901 76.6148C232.068 74.4478 232.717 71.331 233.697 68.6412C233.381 69.1526 232.208 66.5875 233.15 65.0152Z" stroke="#141312" stroke-width="2" stroke-linecap="round" stroke-linejoin="round"/>
<path d="M58.5 144.5C57.8333 143 56 139.5 54 137.5L56.5 136L58.5 132.5L57.5 128L55 126L52 124.5L53.5 120.5L52 117L58.5 114L61 106.5L58.5 101.5L55.5 98V96L50 89.5L44 86.5L54 75.5L50 66.5L41 56.5L32 55L16.5 66.5L18 78L25.5 84.5L18 86.5L13 89.5L10 91.5V93.5L5.5 96.5L1 101V106.5L3 110.5L8 114.5L7 117L8 121.5L11.5 124.5L10 126.5L7 130V135L3 141V147.5L7 152L13 153.5L16.5 149.5L18 143L23.5 140L38 138.5L41.5 140L44 144.5L45.5 150.5L48 154L52 154.5L58.5 149.5V144.5Z" fill="#E6E1E0"/>
<circle cx="29.042" cy="70.7646" r="4" stroke="#141312" stroke-width="2"/>
<circle cx="41.042" cy="70.7646" r="4" stroke="#141312" stroke-width="2"/>
<rect x="28.5649" y="70" width="2" height="4" rx="1" fill="#141312"/>
<rect x="38.5649" y="70" width="2" height="4" rx="1" fill="#141312"/>
<path d="M35.5417 70.7646C33.5417 74.2646 30.5418 75.2646 34.0418 77.2646" stroke="#141312" stroke-width="2" stroke-linecap="round"/>
<path d="M33.042 70.7646H37.042" stroke="#141312" stroke-width="2"/>
<path d="M22.5418 55.2645C26.5418 47.7645 35.0419 47.7645 39.0419 51.2645C40.5419 49.9312 44.8419 48.2645 48.0419 54.2645C50.7085 59.2645 56.5419 59.7645 55.0419 67.2645C53.5419 74.7645 59.0418 77.2645 57.5418 80.7645C56.0417 84.2645 51.7085 83.2645 50.5419 82.2645C50.3752 84.2645 49.0418 86.2645 47.0418 87.2645C43.5418 89.0146 38.5419 87.7645 39.0419 85.7645L42.0418 83.5L44.5418 80.7645L46.0418 78.2645L49 77.5L51 76.5L51.5 72.5L50.5418 70.2645L47.5 69.5L46.5 65.2645L43.0418 62.7645L42.0418 59.7645L40.5 58H38L36.5418 60.2645L34.5418 62.7645L32.5418 63.2645H29.0418L26 64L23.5418 65.2645L22.5418 69L19.5 70L18.5 71.5L18 74.5L19.5 77.5L23.5418 78.2645L25.0418 80.7645L28 83.5C31.5 85 31 88 24.5 88C19.6338 88 18.8752 84.5979 19.5418 82.7645C18.5419 84.4312 12.9307 84.2645 12.0419 82.2645C10.042 77.7645 15.0419 78.2645 14.0418 67.2645C13.1805 57.7905 20.1418 59.7645 22.5418 55.2645Z" fill="#141312" stroke="#E6E1E0" stroke-width="2" stroke-linecap="round" stroke-linejoin="round"/>
<path d="M30.5 88.5C33 91 38.5 90 40 86.5" stroke="#141312" stroke-width="2" stroke-linecap="round"/>
<path d="M33.0649 82.9999C34.5649 80.9999 38.5649 80.5999 40.5649 80.9999C42.0649 78.4999 37.0649 75.4999 35.5649 80.9999" stroke="#141312" stroke-width="2" stroke-linecap="round" stroke-linejoin="round"/>
<path d="M24.5649 86C14.5649 86.4 14.0649 89 9.06496 92L12.565 103M9.70129 94C4.20129 95.5 -6.43504 106 9.06496 115C11.8983 118.667 18.765 124.2 23.565 117C26.365 113.4 21.3983 111.167 18.565 110.5L23.565 112C23.7317 110.333 23.9649 108 17.5649 108C16.0649 108 12.3983 108 12.565 108.5C9.56502 105.5 9.06496 104 11.5649 102.5" stroke="#141312" stroke-width="2" stroke-linecap="round" stroke-linejoin="round"/>
<path d="M42.2349 86C51.8136 88.8996 51.6443 91.5419 55.7302 95.7019L49.5787 105.47M54.6118 97.4778C59.5585 100.312 67.2155 113.147 49.9515 117.964C47.0606 120.735 44.8227 118.809 44.0651 117.5C41.2651 116.3 41.6783 113.333 42.2349 112C40.4048 110.5 43.0651 105.47 49.0651 106.5C52.8536 107.151 53.5651 110 53.5651 112" stroke="#141312" stroke-width="2" stroke-linecap="round" stroke-linejoin="round"/>
<path d="M42.5649 111.75C43.975 110.955 45.7409 109.75 47.4399 109.75" stroke="#141312" stroke-width="2" stroke-linecap="round"/>
<path d="M43.5649 115.375C44.6093 114.597 45.5559 113.938 46.7872 113.528C47.2952 113.358 47.8004 113.354 48.3149 113.125" stroke="#141312" stroke-width="2" stroke-linecap="round"/>
<path d="M45.0649 117.75C45.6173 117.21 46.231 116.367 47.0511 116.25C47.282 116.217 47.477 116.131 47.6969 116.062C48.0318 115.958 48.2669 115.949 48.5649 115.75" stroke="#141312" stroke-width="2" stroke-linecap="round"/>
<path d="M18.4399 115.625C19.8188 115.71 21.2576 115.88 22.6205 115.632C22.9708 115.568 23.2153 115.375 23.5649 115.375" stroke="#141312" stroke-width="2" stroke-linecap="round"/>
<path d="M16.8149 118.375H21.3149" stroke="#141312" stroke-width="2" stroke-linecap="round"/>
<path d="M12.5001 107.5C8.56512 97.4999 23.5651 97.9999 26.0651 99.9999C25.8984 97.6666 30.0182 93.8905 35.5652 94.9999C43.0651 96.4999 40.7318 101.667 40.5651 103C44.5651 99.9999 49.7001 100.3 48.5001 105.5M53.0001 118C56.5001 123.5 48.0652 128.538 41.0652 128C35.8652 127.6 34.5652 125.167 34.5652 124C32.0652 126.167 26.4651 128.2 22.0651 123C18.7318 124.833 11.0002 127.5 8.0001 121.5C6.75004 119 7.00004 117 8.50007 116" stroke="#141312" stroke-width="3" stroke-linecap="round" stroke-linejoin="round"/>
<path d="M19.0649 142C25.3294 138.52 38.6187 138.835 48.4792 139.235C54.3097 139.472 59.9025 135.004 57.9537 129.504C57.0364 126.915 55.2645 125 52.0649 125" stroke="#141312" stroke-width="2" stroke-linecap="round" stroke-linejoin="round"/>
<path d="M6.565 135.5C5.89834 130.167 8.565 126 12.332 125" stroke="#141312" stroke-width="2" stroke-linecap="round" stroke-linejoin="round"/>
<path d="M18.0649 125C19.211 126.146 20.3149 126.819 20.3149 128.5" stroke="#141312" stroke-width="2" stroke-linecap="round"/>
<path d="M39.5648 128C25.5648 128.5 13.7718 129.108 8.06476 134C4.56481 137 -1.1507 148.989 8.0648 152.5C18.5649 156.5 15.0648 144 19.5648 141.5" stroke="#141312" stroke-width="2" stroke-linecap="round" stroke-linejoin="round"/>
<path d="M54.0648 138C57.5648 141 62.2804 149.989 53.0649 153.5C42.5648 157.5 46.0648 142 39.5648 139.5" stroke="#141312" stroke-width="2" stroke-linecap="round" stroke-linejoin="round"/>
<path d="M30.522 128.366C31.3678 129.64 32.1289 130.722 32.52 132.209C32.9248 133.748 33.0321 135.615 32.8766 137.207C32.8195 137.791 32.7727 138.448 32.6077 139.01" stroke="#141312" stroke-width="2" stroke-linecap="round"/>
<path d="M17.0649 130.5C22.5649 132 20.5649 136 19.5649 136C21.3983 136.667 24.2649 138.6 21.0649 141M4.56494 141C11.5649 137 18.0649 140.5 17.0649 145" stroke="#141312" stroke-width="2" stroke-linecap="round" stroke-linejoin="round"/>
<path d="M56.0649 140.5C49.0649 137.5 43.5649 143.5 44.5649 148" stroke="#141312" stroke-width="2" stroke-linecap="round" stroke-linejoin="round"/>
<path d="M26.5649 131.625C27.1178 131.625 27.641 131.681 28.1899 131.75" stroke="#141312" stroke-width="2" stroke-linecap="round"/>
<path d="M27.4399 135C28.0792 134.864 29.4247 134.448 30.0649 134.875" stroke="#141312" stroke-width="2" stroke-linecap="round"/>
<path fill-rule="evenodd" clip-rule="evenodd" d="M38.3702 58.2138C39.1898 58.1384 39.8087 58.0966 40.3176 58.3241C40.7194 58.5037 41.2612 58.9597 41.5614 60.4606C41.8479 61.893 42.4075 62.8297 43.1185 63.5207C43.5944 63.9832 44.1781 64.3519 44.6341 64.6399C44.7865 64.7362 44.9247 64.8235 45.0398 64.9023C45.5483 65.2502 45.9297 65.602 46.194 66.2151C46.4723 66.8605 46.6622 67.8949 46.5457 69.6755C46.5103 70.0729 46.7163 70.4697 47.0948 70.6589C47.5425 70.8827 48.0778 70.7392 48.358 70.3427C48.3926 70.3323 48.4504 70.3198 48.5398 70.3123C48.8026 70.2902 49.1769 70.3408 49.5606 70.5178C50.2696 70.8448 51.042 71.6158 51.042 73.2645C51.042 74.6581 50.7987 75.5358 50.4894 76.089C50.1928 76.6197 49.8034 76.9107 49.3634 77.0839C48.8973 77.2672 48.3491 77.3269 47.7529 77.3269C47.4582 77.3269 47.1688 77.3127 46.8801 77.2972L46.8018 77.2929C46.5481 77.2791 46.2803 77.2644 46.042 77.2644H45.3212L45.0933 77.9482C43.7222 82.0616 40.0891 85.2645 34.542 85.2645C29.612 85.2645 26.374 81.6925 24.4364 77.8172L24.1246 77.1936L23.4316 77.2706C21.3074 77.5066 20.1644 77.1191 19.5368 76.5334C18.9004 75.9394 18.542 74.9094 18.542 73.2644C18.542 72.0205 19.207 71.0769 20.005 70.584C20.8648 70.0529 21.5491 70.1857 21.8349 70.4715C22.2254 70.8621 22.8586 70.8621 23.2491 70.4716C23.4444 70.2763 23.542 70.0204 23.542 69.7645C23.542 66.6629 24.3491 65.4705 25.222 64.925C25.7016 64.6252 26.3047 64.4505 27.0517 64.3585C27.8046 64.2658 28.6285 64.2645 29.542 64.2645C29.7556 64.2645 29.9742 64.2666 30.1947 64.2688L30.1949 64.2688H30.195C30.7899 64.2747 31.3993 64.2807 31.9648 64.2448C32.7655 64.194 33.5869 64.0568 34.3829 63.6803C36.0191 62.9063 37.2443 61.2747 38.2603 58.2925C38.2647 58.2796 38.2756 58.2609 38.2983 58.2434C38.3213 58.2255 38.3474 58.2159 38.3702 58.2138ZM21.6088 68.2503C21.8455 65.7393 22.7082 64.1376 24.162 63.229C24.9824 62.7162 25.9043 62.4847 26.8073 62.3735C27.6934 62.2644 28.6324 62.2644 29.5097 62.2645H29.542C29.8057 62.2645 30.0534 62.2669 30.2894 62.2693H30.2895C30.8536 62.2749 31.3506 62.2798 31.838 62.2489C32.5038 62.2066 33.047 62.0997 33.5277 61.8723C34.445 61.4384 35.4216 60.4228 36.3672 57.6475C36.6397 56.8476 37.3684 56.2976 38.1868 56.2223L38.2874 56.2129C38.9982 56.146 40.1116 56.0413 41.1338 56.4982C42.3128 57.0252 43.1414 58.1625 43.5226 60.0683C43.7361 61.1359 44.114 61.6992 44.5124 62.0864C44.8299 62.395 45.1386 62.5894 45.5263 62.8337L45.5263 62.8337L45.5264 62.8337C45.7178 62.9543 45.9285 63.087 46.1692 63.2516C46.8482 63.7163 47.5606 64.3332 48.0306 65.4232C48.3575 66.1814 48.5449 67.1164 48.576 68.3084C49.153 68.2947 49.7919 68.4219 50.3983 68.7017C51.8144 69.3549 53.042 70.8339 53.042 73.2645C53.042 74.8708 52.7644 76.1181 52.2352 77.0649C51.6933 78.0342 50.9264 78.6182 50.0956 78.945C49.2908 79.2617 48.4536 79.3269 47.7529 79.3269C47.3992 79.3269 47.0623 79.3099 46.7723 79.2942L46.7311 79.292C44.9281 83.8309 40.6782 87.2645 34.542 87.2645C28.7687 87.2645 25.0832 83.2587 22.9622 79.3181C20.9149 79.4427 19.2961 79.0445 18.1722 77.9955C16.9335 76.8394 16.542 75.1195 16.542 73.2644C16.542 71.2584 17.627 69.702 18.954 68.8824C19.722 68.408 20.6928 68.1266 21.6088 68.2503ZM48.3151 70.3602C48.3148 70.3599 48.3183 70.3575 48.3265 70.3539C48.3196 70.3587 48.3154 70.3605 48.3151 70.3602Z" fill="#141312"/>
<path d="M45.042 69.7646H47.042" stroke="#141312" stroke-width="2" stroke-linecap="round"/>
<path d="M23.042 69.7646H25.042" stroke="#141312" stroke-width="2" stroke-linecap="round"/>
</svg>
