<svg width="14" height="14" viewBox="0 0 14 14" fill="none" xmlns="http://www.w3.org/2000/svg">
<path d="M3.0345 1.70459C4.64012 2.90946 6.3665 5.35334 7 6.66409C7.63438 5.35334 9.35987 2.91034 10.9655 1.70459C12.1231 0.835713 14 0.162838 14 2.30309C14 2.73096 13.755 5.89496 13.6115 6.40859C13.111 8.19359 11.2901 8.64946 9.6705 8.37384C12.502 8.85596 13.223 10.452 11.6664 12.0488C8.71238 15.0798 7.42087 11.2876 7.09012 10.3163C7.02887 10.1378 7 10.0538 7 10.1256C7 10.0547 6.97112 10.1378 6.91075 10.3163C6.57912 11.2876 5.28762 15.0798 2.33363 12.0488C0.777875 10.452 1.498 8.85509 4.32863 8.37384C2.70988 8.64946 0.888125 8.19446 0.3885 6.40859C0.245 5.89496 0 2.73009 0 2.30309C0 0.162838 1.87687 0.835713 3.0345 1.70459Z" fill="#FFECD1"/>
</svg>
