<svg width="202" height="200" viewBox="0 0 202 200" fill="none" xmlns="http://www.w3.org/2000/svg">
<g clip-path="url(#clip0_2289_265)">
<circle cx="102.46" cy="67.5398" r="4.86728" stroke="#E6E1E0" stroke-width="2"/>
<circle cx="116.542" cy="67.5398" r="4.86728" stroke="#E6E1E0" stroke-width="2"/>
<path d="M104.807 78.1008C106.567 79.861 112.435 79.861 113.608 78.1008" stroke="#E6E1E0" stroke-width="2" stroke-linecap="round"/>
<path fill-rule="evenodd" clip-rule="evenodd" d="M113.261 52.6512L113.351 52.6431C114.291 52.5584 115.06 52.4891 115.718 52.764C116.272 52.9955 116.954 53.5784 117.321 55.4146C117.651 57.0638 118.292 58.1306 119.099 58.9151C119.643 59.4437 120.301 59.8596 120.835 60.1965C121.018 60.3124 121.187 60.419 121.331 60.5176C121.942 60.9359 122.418 61.3718 122.747 62.1326C123.088 62.9256 123.311 64.1712 123.173 66.277C123.137 66.6745 123.343 67.0714 123.722 67.2607C124.185 67.4922 124.741 67.3309 125.013 66.9031C125.049 66.8858 125.14 66.8518 125.325 66.8363C125.665 66.8077 126.135 66.8733 126.61 67.0928C127.504 67.5048 128.45 68.471 128.45 70.4734C128.45 72.1272 128.161 73.1892 127.779 73.8725C127.41 74.5333 126.92 74.9002 126.37 75.1167C125.794 75.3434 125.125 75.414 124.417 75.414C124.066 75.414 123.722 75.3971 123.383 75.3788L123.292 75.3738C122.993 75.3575 122.683 75.3407 122.409 75.3407H121.688L121.46 76.0244C119.829 80.9184 115.502 84.7283 108.914 84.7283C103.03 84.7283 99.185 80.4625 96.9005 75.8934L96.5887 75.2698L95.8956 75.3468C93.3813 75.6261 91.978 75.1737 91.1878 74.4361C90.3888 73.6904 89.9653 72.4218 89.9653 70.4734C89.9653 68.9475 90.7821 67.7871 91.7644 67.1804C92.8085 66.5355 93.7096 66.6575 94.1255 67.0734C94.516 67.4639 95.1492 67.4639 95.5397 67.0734C95.735 66.8781 95.8326 66.6222 95.8326 66.3663C95.8326 62.701 96.7872 61.2267 97.8855 60.5402C98.4779 60.17 99.2133 59.9601 100.103 59.8505C100.999 59.7402 101.977 59.7388 103.047 59.7388C103.302 59.7388 103.56 59.7414 103.821 59.744H103.821C104.523 59.7509 105.234 59.758 105.896 59.715C106.83 59.6545 107.775 59.4923 108.686 59.0542C110.551 58.1578 111.969 56.263 113.157 52.7195C113.16 52.7101 113.168 52.695 113.188 52.6797C113.209 52.6639 113.235 52.6536 113.261 52.6512ZM93.8939 64.7911C94.1429 61.7689 95.1472 59.8932 96.8255 58.8443C97.7587 58.261 98.8128 57.9943 99.859 57.8655C100.888 57.7388 101.981 57.7388 103.014 57.7388H103.047C103.352 57.7388 103.64 57.7417 103.916 57.7444H103.916C104.587 57.7511 105.184 57.757 105.767 57.7192C106.563 57.6676 107.226 57.5369 107.82 57.2517C108.965 56.7013 110.139 55.4275 111.26 52.0838C111.533 51.272 112.27 50.7322 113.082 50.6592C113.145 50.6536 113.211 50.6473 113.28 50.6407L113.28 50.6407C114.107 50.562 115.352 50.4435 116.489 50.9186C117.846 51.4856 118.831 52.765 119.282 55.0223C119.539 56.3067 119.998 57.0001 120.493 57.4808C120.879 57.8556 121.262 58.0973 121.727 58.3901C121.949 58.5305 122.191 58.6827 122.46 58.8669C123.242 59.402 124.049 60.1029 124.583 61.3407C124.972 62.2417 125.191 63.3705 125.213 64.8391C125.905 64.7913 126.697 64.9302 127.448 65.2767C129.048 66.0149 130.45 67.689 130.45 70.4734C130.45 72.34 130.127 73.7716 129.525 74.8484C128.91 75.9478 128.043 76.6076 127.102 76.9779C126.187 77.3379 125.23 77.414 124.417 77.414C124.007 77.414 123.615 77.3942 123.275 77.3759L123.195 77.3715L123.102 77.3665C121.038 82.6875 116.092 86.7283 108.914 86.7283C102.185 86.7283 97.893 82.0281 95.426 77.3968C92.9959 77.5629 91.1135 77.1025 89.8232 75.8983C88.4219 74.5904 87.9653 72.632 87.9653 70.4734C87.9653 68.1855 89.2021 66.4123 90.7134 65.4788C91.6452 64.9033 92.8179 64.5867 93.8939 64.7911Z" fill="#E6E1E0"/>
<rect x="102.46" y="65.1929" width="2.34691" height="4.69383" rx="1.17346" fill="#E6E1E0"/>
<rect x="114.195" y="65.1929" width="2.34691" height="4.69383" rx="1.17346" fill="#E6E1E0"/>
<path d="M110.087 67.5398C107.741 71.6469 104.22 72.8203 108.327 75.1673" stroke="#E6E1E0" stroke-width="2" stroke-linecap="round"/>
<path d="M107.154 67.5398H111.848" stroke="#E6E1E0" stroke-width="2"/>
<path d="M121.235 66.3662H123.582" stroke="#E6E1E0" stroke-width="2" stroke-linecap="round"/>
<path d="M95.4194 66.3662H97.7663" stroke="#E6E1E0" stroke-width="2" stroke-linecap="round"/>
<path d="M94.8326 49.3512C99.5264 40.5502 109.501 40.5502 114.195 44.6573C115.955 43.0927 121.001 41.137 124.756 48.1777C127.885 54.045 134.73 54.6317 132.97 63.4326C131.21 72.2336 137.664 75.1672 135.903 79.2743C134.143 83.3814 129.058 82.2079 127.689 81.0345C127.494 83.3814 125.929 85.7283 123.582 86.9018C119.475 88.9554 113.608 87.4885 114.195 85.1416L117.715 83.3814L120.649 79.2743L122.409 76.3407H125.929L128.863 74.5805L129.45 69.8866L127.689 66.953L124.756 65.1928L123.582 61.0857L118.888 58.1521L117.715 54.6317L115.955 51.6981H112.434L111.261 55.2184L108.914 58.1521L106.567 58.7388H102.46H97.7662L96.006 61.0857L94.8326 65.1928L91.3122 65.7795L89.552 67.5397L88.9653 71.6468L90.7255 75.7539L96.006 76.3407L97.7662 79.2743L100.7 83.3814C104.807 85.1416 105.394 88.0752 97.7662 88.0752C92.0559 88.0752 90.5299 83.7725 91.3122 81.6212C90.1388 83.577 83.5543 83.3814 82.5113 81.0345C80.1645 75.7539 86.0317 76.3407 84.8582 63.4326C83.8475 52.3152 92.0163 54.6317 94.8326 49.3512Z" fill="#E6E1E0"/>
<path d="M104.22 85.7283V90.4221C100.113 91.5956 91.3123 95.2333 88.9654 100.396C86.6185 105.56 84.076 109.98 83.0981 111.544L86.6185 113.891M113.608 85.7283V90.4221C115.759 91.2044 120.297 92.8864 121.235 93.3557M107.741 128.559C120.649 133.253 134.144 127.973 135.904 122.692C136.842 119.876 133.752 114.478 132.97 112.131M93.6593 118.585C97.7664 123.866 109.696 118.389 115.368 116.825C119.475 115.065 130.623 114.478 130.623 116.825C130.623 119.48 126.516 117.998 122.409 118.585C128.114 118.163 131.797 118.585 130.623 122.105C129.684 124.922 121.235 126.213 116.542 125.626C109.305 128.559 92.8378 133.253 89.5522 126.213" stroke="#E6E1E0" stroke-width="2" stroke-linecap="round" stroke-linejoin="round"/>
<path d="M112.581 117.265C112.869 117.233 113.272 116.893 113.527 116.76C114.563 116.219 115.501 115.416 116.411 114.69C117.548 113.783 118.748 112.825 120.013 112.099C120.322 111.921 121.155 111.342 121.529 111.398C122.034 111.473 122.415 112.439 122.588 112.832C122.906 113.552 122.702 113.771 122.702 114.478" stroke="#E6E1E0" stroke-width="2" stroke-linecap="round"/>
<path d="M131.21 118.585C132.618 114.83 132.97 112.718 132.97 112.131C134.926 111.74 138.837 110.136 138.837 106.851C138.837 103.565 137.273 100.397 136.49 99.2231V93.3558L131.21 96.8762H124.756L122.409 92.1824C122.018 95.5072 120.414 102.391 117.128 103.33C113.021 104.504 98.9398 99.2231 91.8991 105.677C84.8583 112.131 87.7919 128.56 75.4706 127.386C63.1493 126.213 70.5269 135.823 80.1645 133.253C88.9654 130.906 92.4858 120.932 93.6592 116.238" stroke="#E6E1E0" stroke-width="2" stroke-linecap="round" stroke-linejoin="round"/>
<path d="M120.649 122.105H128.276" stroke="#E6E1E0" stroke-width="2" stroke-linecap="round" stroke-linejoin="round"/>
<path d="M106.274 92.0356C107.226 92.0356 108.169 92.1823 109.126 92.1823C109.874 92.1823 110.533 92.0356 111.261 92.0356" stroke="#E6E1E0" stroke-width="2" stroke-linecap="round"/>
<path d="M94.2458 130.906L93.226 140.085C93.1337 140.916 93.569 141.716 94.3165 142.09V142.09C94.9924 142.427 95.4193 143.118 95.4193 143.874V151.719C95.4193 152.862 96.346 153.789 97.4891 153.789V153.789C98.6195 153.789 99.5402 154.695 99.567 155.825C99.8468 167.61 100.857 180.305 99.5264 184.299C97.7662 189.579 86.5533 188.406 88.3786 196.62C89.5521 201.901 111.261 198.967 111.261 197.793" stroke="#E6E1E0" stroke-width="2" stroke-linecap="round" stroke-linejoin="round"/>
<path d="M126.516 129.733L127.925 137.716C128.127 138.86 127.46 139.979 126.358 140.347V140.347C125.401 140.666 124.756 141.561 124.756 142.57V150.547C124.756 151.365 124.093 152.029 123.275 152.029V152.029C122.468 152.029 121.809 152.668 121.798 153.475C121.661 163.736 122.07 181.166 124.756 184.299C126.516 186.352 136.49 187.819 136.49 194.273C136.49 199.554 115.368 200.727 112.435 197.793" stroke="#E6E1E0" stroke-width="2" stroke-linecap="round" stroke-linejoin="round"/>
<path d="M97.7664 141.468C100.46 141.468 105.749 141.62 110.674 141.536M122.409 141.468C120.062 141.536 115.404 141.455 110.674 141.536M110.674 141.536V150.268M101.873 153.789C113.021 153.202 112.435 153.789 118.302 153.789" stroke="#E6E1E0" stroke-width="2" stroke-linecap="round" stroke-linejoin="round"/>
<path d="M111.848 153.789V196.62" stroke="#E6E1E0" stroke-width="2" stroke-linecap="round" stroke-linejoin="round"/>
<path d="M100.113 184.152C101.23 183.564 101.528 183.481 102.819 183.94C104.555 184.558 105.253 185.332 106.258 186.768C106.544 187.176 106.373 186.876 106.453 186.531C106.543 186.143 106.985 185.595 107.301 185.358C108.037 184.806 109.035 184.592 109.941 184.592" stroke="#E6E1E0" stroke-width="2" stroke-linecap="round"/>
<path d="M113.168 184.739C114.308 184.713 115.998 184.153 116.982 184.918C117.509 185.328 118.05 185.88 118.465 186.401C118.653 186.638 118.742 187.086 118.742 186.532C118.742 184.728 120.577 184.299 122.116 184.299" stroke="#E6E1E0" stroke-width="2" stroke-linecap="round"/>
<path d="M95.8594 188.259C97.4719 189.872 98.0512 192.672 98.353 194.86C98.5212 196.08 98.4997 197.3 98.4997 198.527" stroke="#E6E1E0" stroke-width="2" stroke-linecap="round"/>
<path d="M128.57 187.526C127.662 189.189 126.819 190.598 126.695 192.545C126.559 194.705 126.956 196.817 126.956 198.967" stroke="#E6E1E0" stroke-width="2" stroke-linecap="round"/>
<path d="M100.847 173.591C103.63 174.691 106.322 174.324 109.208 174.324" stroke="#E6E1E0" stroke-width="2" stroke-linecap="round"/>
<path d="M112.581 173.738C114.247 173.738 116.568 174.154 118.155 173.444C118.907 173.108 119.772 172.564 120.649 172.564" stroke="#E6E1E0" stroke-width="2" stroke-linecap="round"/>
<path d="M104.514 177.551C104.514 177.935 104.53 177.983 104.22 178.138" stroke="#E6E1E0" stroke-width="2" stroke-linecap="round"/>
<path d="M108.034 177.845C108.068 178.115 108.129 178.039 108.327 178.138" stroke="#E6E1E0" stroke-width="2" stroke-linecap="round"/>
<path d="M115.662 177.845C115.588 178.432 115.368 177.821 115.368 177.551" stroke="#E6E1E0" stroke-width="2" stroke-linecap="round"/>
<path d="M118.302 177.551H118.595" stroke="#E6E1E0" stroke-width="2" stroke-linecap="round"/>
<path d="M127.176 102.743C127.176 103.31 127.249 103.866 127.249 104.43" stroke="#E6E1E0" stroke-width="2" stroke-linecap="round"/>
<path d="M132.97 102.743C132.97 103.31 133.043 103.866 133.043 104.43" stroke="#E6E1E0" stroke-width="2" stroke-linecap="round"/>
<path fill-rule="evenodd" clip-rule="evenodd" d="M93.8638 65.1181C94.1075 62.1117 95.1005 60.2506 96.7584 59.2113C97.6789 58.6342 98.7194 58.3699 99.7531 58.2422C100.77 58.1166 101.851 58.1166 102.873 58.1166H102.905C103.206 58.1166 103.491 58.1195 103.764 58.1222C104.429 58.1288 105.021 58.1347 105.598 58.0971C106.387 58.0457 107.046 57.9155 107.636 57.6307C108.775 57.0808 109.939 55.8094 111.049 52.4834C111.315 51.6892 112.033 51.1629 112.824 51.092C112.888 51.0862 112.956 51.0797 113.027 51.0729C113.845 50.9949 115.071 50.8777 116.19 51.344C117.53 51.9021 118.505 53.1666 118.952 55.4084C119.207 56.6858 119.663 57.3768 120.154 57.8562C120.537 58.2293 120.918 58.4703 121.379 58.7615C121.599 58.9007 121.837 59.0514 122.103 59.2334C122.875 59.7635 123.671 60.457 124.197 61.6816C124.582 62.5767 124.799 63.6999 124.819 65.1639C125.505 65.1132 126.293 65.25 127.04 65.5955C128.617 66.3255 130 67.9814 130 70.7384C130 72.5891 129.681 74.0069 129.087 75.0724C128.481 76.16 127.626 76.8125 126.698 77.1787C125.795 77.535 124.85 77.6105 124.047 77.6105C123.642 77.6105 123.255 77.5909 122.918 77.5727L122.736 77.5627C120.698 82.8426 115.809 86.8537 108.71 86.8537C102.057 86.8537 97.8133 82.1894 95.3745 77.5928C92.9678 77.7594 91.107 77.3031 89.8331 76.1105C88.4515 74.817 88 72.8789 88 70.7384C88 68.4739 89.2203 66.719 90.7114 65.7952C91.6362 65.2223 92.7995 64.9095 93.8638 65.1181ZM112.997 53.0379L113.107 53.028C114.03 52.9447 114.79 52.8761 115.443 53.1482C115.999 53.3797 116.678 53.9625 117.042 55.7915C117.368 57.4254 118.001 58.4811 118.797 59.2572C119.334 59.7805 119.983 60.1918 120.51 60.5259C120.692 60.6413 120.859 60.7474 121.003 60.8458C121.609 61.2618 122.083 61.6964 122.409 62.4551C122.749 63.2453 122.969 64.4842 122.832 66.5755C122.797 66.9637 122.998 67.3515 123.366 67.5363C123.819 67.7631 124.362 67.604 124.626 67.1834C124.661 67.1662 124.753 67.1298 124.945 67.1136C125.284 67.085 125.751 67.1506 126.224 67.3695C127.113 67.7809 128.052 68.7452 128.052 70.7384C128.052 72.3812 127.767 73.438 127.387 74.1192C127.02 74.7783 126.532 75.1447 125.985 75.3608C125.412 75.5868 124.749 75.6569 124.047 75.6569C123.699 75.6568 123.359 75.64 123.023 75.6219L122.933 75.6169C122.637 75.6008 122.332 75.5841 122.061 75.5841H121.359L121.137 76.252C119.521 81.1146 115.234 84.9 108.71 84.9C102.88 84.9 99.0716 80.6601 96.8105 76.124L96.5068 75.5148L95.8319 75.59C93.3424 75.8675 91.9486 75.4187 91.162 74.6823C90.3669 73.9379 89.9476 72.6736 89.9476 70.7384C89.9476 69.2183 90.759 68.062 91.7349 67.4573C92.771 66.8154 93.6712 66.9334 94.0899 67.3534C94.4702 67.7348 95.0868 67.7348 95.4671 67.3534C95.6573 67.1626 95.7523 66.9127 95.7523 66.6627C95.7523 63.0231 96.6974 61.5533 97.7907 60.8679C98.3793 60.4989 99.1093 60.2901 99.9911 60.1812C100.879 60.0716 101.847 60.0703 102.905 60.0703C103.157 60.0703 103.414 60.0728 103.671 60.0754C104.366 60.0823 105.069 60.0893 105.724 60.0466C106.647 59.9865 107.581 59.8254 108.481 59.391C110.32 58.5025 111.721 56.624 112.896 53.1036C112.899 53.0947 112.907 53.0804 112.926 53.0656C112.946 53.0503 112.971 53.0402 112.997 53.0379Z" fill="#E6E1E0"/>
<path d="M102.227 49C100.754 50.167 99 51.6694 99 53.6938" stroke="#141312" stroke-width="2" stroke-linecap="round"/>
<rect x="1" y="169" width="72" height="29" rx="3" stroke="#CFC4C6" stroke-width="2"/>
<rect x="176" y="118.414" width="20.6274" height="20.6274" rx="3" transform="rotate(45 176 118.414)" stroke="#CFC4C6" stroke-width="2"/>
<rect x="151" y="148" width="50" height="50" rx="25" stroke="#E6E1E0" stroke-width="2"/>
<rect x="3" y="74" width="47" height="47" rx="23.5" stroke="#CFC4C6" stroke-width="2"/>
<path d="M24.4019 123C25.5566 121 28.4434 121 29.5981 123L52.5477 162.75C53.7024 164.75 52.2591 167.25 49.9497 167.25H4.05033C1.74093 167.25 0.297551 164.75 1.45225 162.75L24.4019 123Z" stroke="#E6E1E0" stroke-width="2"/>
<rect x="1" y="1" width="200" height="198" stroke="#E6E1E0" stroke-width="2" stroke-linejoin="round"/>
</g>
<defs>
<clipPath id="clip0_2289_265">
<rect width="202" height="200" fill="white"/>
</clipPath>
</defs>
</svg>
