<svg width="202" height="200" viewBox="0 0 202 200" fill="none" xmlns="http://www.w3.org/2000/svg">
<g clip-path="url(#clip0_2289_169)">
<path d="M174.263 116.869V115.297C174.263 114.745 174.711 114.297 175.263 114.297H180.263C180.816 114.297 181.263 114.745 181.263 115.297V117.297" stroke="#E6E1E0" stroke-width="2" stroke-linecap="round" stroke-linejoin="round"/>
<path d="M164.263 116.297V115.297C164.263 114.745 164.711 114.297 165.263 114.297H170.263C170.816 114.297 171.263 114.745 171.263 115.297V116.297" stroke="#E6E1E0" stroke-width="2" stroke-linecap="round" stroke-linejoin="round"/>
<path d="M154.263 116.297V115.297C154.263 114.745 154.711 114.297 155.263 114.297H160.263C160.816 114.297 161.263 114.745 161.263 115.297V116.297" stroke="#E6E1E0" stroke-width="2" stroke-linecap="round" stroke-linejoin="round"/>
<path d="M144.263 116.297V115.297C144.263 114.745 144.711 114.297 145.263 114.297H150.263C150.816 114.297 151.263 114.745 151.263 115.297V116.297" stroke="#E6E1E0" stroke-width="2" stroke-linecap="round" stroke-linejoin="round"/>
<path d="M134.263 116.297V115.297C134.263 114.745 134.711 114.297 135.263 114.297H140.263C140.816 114.297 141.263 114.745 141.263 115.297V116.297" stroke="#E6E1E0" stroke-width="2" stroke-linecap="round" stroke-linejoin="round"/>
<path d="M178.763 119.797H132.263" stroke="#E6E1E0" stroke-width="2" stroke-linecap="round" stroke-linejoin="round"/>
<path d="M131.763 119.797V125.297H186.263L191.763 58.7974H185.763L181.763 117.797" stroke="#E6E1E0" stroke-width="2" stroke-linecap="round" stroke-linejoin="round"/>
<path d="M51.2636 104.297C57.7636 99.7974 70.7636 100.797 68.7636 110.297C66.7636 119.797 56.7636 140.297 57.7636 141.297C58.7636 142.297 76.2636 122.797 87.2636 117.297C98.2636 111.797 108.221 110.704 112.264 114.297C116.764 118.297 118.764 125.297 114.764 125.797C111.564 126.197 113.564 123.797 110.264 118.297C112.044 121.264 112.556 124.125 112.595 126.547C112.64 129.307 111.241 132.053 108.67 133.059C102.725 135.385 96.455 131.933 99.7636 127.797C98.4303 129.297 92.0636 130.797 87.2636 130.797C81.2636 130.797 63.3171 164.019 51.2636 162.297C39.2101 160.575 41.7636 145.797 43.2636 133.797" stroke="#E6E1E0" stroke-width="2" stroke-linecap="round" stroke-linejoin="round"/>
<path d="M62.2634 128.297C57.0968 130.464 45.7634 134.497 39.7634 133.297L42.2634 120.297" stroke="#E6E1E0" stroke-width="2" stroke-linecap="round" stroke-linejoin="round"/>
<path d="M52.2634 83.7974C50.2634 89.2974 43.7635 95.2974 38.7635 98.2974C33.7635 101.297 11.5 115.5 1.5 150" stroke="#E6E1E0" stroke-width="2" stroke-linecap="round" stroke-linejoin="round"/>
<path d="M88.121 103.563C87.7609 103.144 87.8087 102.513 88.2278 102.153C88.6465 101.794 89.2774 101.842 89.6369 102.261L98.5651 112.661L96.4374 113.233L88.121 103.563Z" fill="#CFC4C6" stroke="#E6E1E0"/>
<path d="M112.77 128.384C112.621 128.21 112.54 127.988 112.54 127.758C112.54 126.861 113.656 126.448 114.24 127.128L121.565 135.661L119.439 136.232L112.77 128.384Z" fill="#CFC4C6" stroke="#E6E1E0"/>
<path d="M102.263 121.297C104.43 123.131 106.663 127.497 104.263 130.297" stroke="#E6E1E0" stroke-width="2" stroke-linecap="round" stroke-linejoin="round"/>
<path d="M105.763 118.797C107.93 120.631 109.263 124.797 108.763 128.297" stroke="#E6E1E0" stroke-width="2" stroke-linecap="round" stroke-linejoin="round"/>
<path d="M48.7634 96.7974C53.2634 99.2974 57.7634 101.297 62.2634 101.797" stroke="#E6E1E0" stroke-width="2" stroke-linecap="round" stroke-linejoin="round"/>
<path d="M111.263 136.297H154.263" stroke="#E6E1E0" stroke-width="3" stroke-linecap="round"/>
<path d="M118.263 115.797C119.763 112.797 132.763 113.797 132.763 110.797C132.763 106.892 127.763 107.297 127.763 107.297C132.763 105.797 137.88 114.527 141.263 110.297C143.263 107.797 134.763 100.797 126.763 100.797C120.263 100.797 110.763 105.797 107.263 108.297" stroke="#E6E1E0" stroke-width="2" stroke-linecap="round" stroke-linejoin="round"/>
<path d="M136.763 110.797C139.318 111.437 137.796 113.897 137.263 114.297" stroke="#E6E1E0" stroke-width="2" stroke-linecap="round" stroke-linejoin="round"/>
<path d="M130.263 107.297C125.763 107.297 123.263 107.631 120.763 108.297" stroke="#E6E1E0" stroke-width="2" stroke-linecap="round" stroke-linejoin="round"/>
<path d="M67.7634 115.297C68.5634 122.497 71.5968 127.131 72.2634 128.797M76.2634 150.297C85.7634 154.297 96.2634 145.297 99.2634 135.297" stroke="#E6E1E0" stroke-width="2" stroke-linecap="round" stroke-linejoin="round"/>
<path d="M104.263 137.297V185.297" stroke="#E6E1E0" stroke-width="2" stroke-linecap="round" stroke-linejoin="round"/>
<path d="M131.763 122.297H117.763" stroke="#E6E1E0" stroke-width="2" stroke-linecap="round" stroke-linejoin="round"/>
<path d="M48 161.5C45.5 169 45.5 195 48.0001 198" stroke="#E6E1E0" stroke-width="2" stroke-linecap="round" stroke-linejoin="round"/>
<path d="M85.7975 45.0576C93.3577 50.0157 93.3408 61.9383 95.4691 66.2103C97.5974 70.4824 111.763 75.2973 97.8768 78.6521C97.9026 83.2691 94.7831 93.1667 88.2634 93.2973C81.7437 93.4279 75.7706 91.8877 72.8285 91.4168C69.7634 93.7973 66.7634 98.2973 64.7634 101.797" stroke="#E6E1E0" stroke-width="2" stroke-linecap="round" stroke-linejoin="round"/>
<path d="M69.2635 30.5C76.2635 27 87.2635 35.7973 90.7635 42.2973C95.7635 50.7973 90.5588 57.6534 84.7635 58.2973C75.7635 59.2973 68.7635 71.7973 69.2635 65.2973C57.7193 54.7152 55.7635 76.2973 62.7635 77.7973C67.2635 84.7973 62.2635 91.2973 53.2635 91.2973C46.0635 91.2973 45.9301 88.6306 46.7635 87.2973C34.2635 92.2973 33.7635 83.464 35.7635 79.2973C33.2635 79.2973 29.7564 79.5437 26.2635 77.7973C22.2635 75.7973 20.5968 68.7973 26.2635 64.2973C23.0968 64.464 16.9249 61.0698 21.2635 56.2973C26.2635 50.7973 37.2635 53.2973 40.7635 42.2973C44.2635 31.2973 62.2635 34 69.2635 30.5Z" fill="#E6E1E0"/>
<path d="M94.7634 63.2974C95.868 63.2974 96.7634 64.1928 96.7634 65.2974C96.7634 66.4019 95.868 67.2974 94.7634 67.2974L69.7634 67.2974L68.7634 63.2974L94.7634 63.2974Z" fill="#E6E1E0"/>
<path d="M58.0134 55.0474C60.3148 53.5679 63.8011 53.0474 66.5134 53.0474" stroke="#141312" stroke-width="3" stroke-linecap="round"/>
<path d="M56.7634 47.5474C59.7174 46.0483 63.022 45.7604 66.2634 45.2974" stroke="#141312" stroke-width="3" stroke-linecap="round"/>
<path d="M33.5134 61.7974C35.4195 60.7 37.1232 59.773 39.2634 59.2974" stroke="#141312" stroke-width="3" stroke-linecap="round"/>
<rect x="90.7634" y="57.7974" width="4" height="19" rx="2" fill="#E6E1E0"/>
<path d="M69.7635 66.2974C68.2634 60.7974 55.8527 62.6005 58.2635 70.7974C60.7634 79.2974 66.7635 78.7974 69.7635 77.7974" stroke="#E6E1E0" stroke-width="2" stroke-linecap="round" stroke-linejoin="round"/>
<rect x="1" y="1" width="200" height="198" stroke="#E6E1E0" stroke-width="2" stroke-linejoin="round"/>
</g>
<defs>
<clipPath id="clip0_2289_169">
<rect width="202" height="200" fill="white"/>
</clipPath>
</defs>
</svg>
