<svg width="428" height="200" viewBox="0 0 428 200" fill="none" xmlns="http://www.w3.org/2000/svg">
<g clip-path="url(#clip0_2291_350)">
<rect x="1" y="1" width="426" height="198" stroke="#E6E1E0" stroke-width="2" stroke-linejoin="round"/>
<path d="M89.7966 39.7602C90.7703 40.3654 92.5726 43.012 91.9924 48.7568C93.5802 48.3573 96.5653 48.703 95.8021 53.2817C95.039 57.8604 92.3516 58.1129 91.1032 57.6668C92.1194 60.08 94.4819 65.4431 95.8021 67.5902C97.4525 70.274 105 95.1363 103 116.54C105 145.04 97.6043 133.089 97.6043 126.255C96.9683 128.64 95.3161 131.692 93.7945 130.547C91.8925 129.116 93.8943 122.916 95.8021 117.945C95.8021 112.9 92.7853 98.174 91.9924 94.0404L91.9924 108.052L91.9924 119.938C91.7775 133.147 91.7474 160.125 93.3458 162.365C95.3439 165.164 89.2122 169.736 91.9924 171C96.0798 172.858 90.5943 174.462 89.3485 175.297C91.6755 174.825 93.221 174.028 97.4525 175.038C101.684 176.048 101.613 180.791 101.048 183.036L77.6894 183.781C76.168 180.966 76.6599 181.428 77.5069 178.06C78.3538 174.693 76.0007 175.722 77.3396 172.817C78.6785 169.911 75.7726 168.572 77.1115 165.666C78.1826 163.341 77.9232 146.234 77.6596 137.971C76.5184 147.075 73.6985 163.389 73.8506 168.156C74.0027 172.923 72.0046 170.124 72.1871 175.844C72.3087 179.658 68.9515 179.129 67.9728 178.365L64.8183 184.191C58.1242 183.769 44.6933 181.589 44.523 176.249C44.3526 170.91 53.1409 172.157 56.3646 173.486C53.2914 166.903 57.6274 168.196 57.5362 165.336C56.4459 161.076 58.8294 161 60.1227 156.664C61.1573 153.195 62.8665 137.966 64.4996 129.325L60.8433 119.42L62.2278 117.945C62.1183 114.512 59.8055 111.818 58.6627 110.9C45.7735 101.768 52.6941 88.3448 57.7655 82.7748L57.6742 79.9146C59.8651 76.7907 63.787 72.0845 65.4741 70.1219L68.5677 62.3882C66.7876 66.4216 62.7233 73.6455 60.707 70.274C59.529 68.3042 60.8696 65.2875 62.7728 62.5616C60.9602 63.9 58.9199 64.4354 57.1268 62.7532C53.585 59.4304 62.9742 51.5912 68.1115 48.087C65.2838 43.2145 68.0423 40.9314 69.775 40.3989C69.5925 34.6784 72.7756 34.7359 74.3899 35.4798C76.9378 31.581 79.9008 33.7133 81.0638 35.2669C86.2813 31.2829 89.0596 36.6024 89.7966 39.7602Z" fill="#141312" stroke="#CFC4C6" stroke-width="2" stroke-linecap="round" stroke-linejoin="round"/>
<path d="M64.7038 91.1775C62.0011 92.7673 58.0266 97.4732 63.7499 103.578L64.7038 91.1775Z" fill="#141312" stroke="#CFC4C6" stroke-width="2" stroke-linecap="round" stroke-linejoin="round"/>
<path d="M64.2268 103.578C68.0424 107.394 70.1091 110.255 70.4271 113.594L61.842 118.84" stroke="#CFC4C6" stroke-width="2" stroke-linecap="round" stroke-linejoin="round"/>
<path d="M321.302 32.5127C318.917 20.112 326.071 17.7273 332.749 19.6351C340.857 18.2042 342.288 12.4808 348.011 18.6812C352.59 23.6414 349.76 29.651 348.488 31.5588C350.078 31.7178 353.067 33.2758 352.304 38.2361C352.304 41.2885 349.76 42.0517 348.488 42.0517C347.852 44.2774 345.722 48.7289 342.288 48.7289V54.4523C352.208 54.4523 362.001 61.7655 364.227 65.4221L362.796 69.2377C368.997 71.6224 368.043 68.7607 369.474 66.853C372.335 61.1296 365.658 56.837 369.474 54.4523C372.526 52.5445 374.561 59.0628 375.197 62.5604C375.674 60.4937 379.585 58.8402 383.782 61.1296C390.936 65.0319 385.213 73.0533 380.443 75.915C375.197 85.4539 363.591 82.9102 358.027 79.2536L362.796 113.117L358.027 114.071L365.658 157.95L362.319 159.381C362.478 162.402 363.56 168.443 366.612 168.443C376.533 166.917 378.377 174.802 378.059 178.936H352.304L348.488 160.812L345.149 159.381L340.857 137.441V159.381L337.995 160.812V178.936H313.671C313.671 167.966 318.44 169.874 320.348 165.581C321.874 162.147 321.62 160.017 321.302 159.381H318.44V115.502L317.009 114.071L313.671 70.6685C303.655 64.1503 287.343 50.4459 302.224 47.775C317.105 45.1041 326.23 51.1137 328.933 54.4523V48.7289C325.881 47.2027 323.846 43.6415 323.21 42.0517C321.938 42.5286 319.203 42.4332 318.44 38.2361C317.677 34.0389 320.03 32.6717 321.302 32.5127Z" fill="#141312" stroke="#CFC4C6" stroke-width="2" stroke-linecap="round" stroke-linejoin="round"/>
<path d="M276.946 14.0706C277.214 9.77802 284.1 5.48549 291.731 9.77803C295.229 8.82413 301.747 9.49186 299.839 19.7939C301.27 19.635 304.036 20.557 303.655 25.5173C303.655 27.8067 301.111 28.379 299.839 28.379C299.68 30.2868 298.885 34.3885 296.977 35.5332V41.7335C302.701 43.0054 314.529 47.8385 316.055 56.9959C317.582 66.1533 318.917 73.2121 319.394 75.5969L316.055 77.0277C318.281 88.6334 322.065 113.18 319.394 118.522C316.095 125.121 312.796 117.281 313.178 110.191C312.988 113.123 312.185 118.522 310.332 118.522L313.194 170.986C313.512 172.576 312.908 173.562 319.394 174.325C325.881 175.088 327.502 177.187 327.502 181.956H300.813C298.667 181.956 296.91 180.272 296.8 178.13C295.638 155.477 292.071 121.046 291.754 114.071C292.388 136.584 293.239 180.448 291.731 181.956H275.038C272.176 181.956 271.222 172.417 279.807 170.986L271.699 129.969L265.022 102.783C265.499 91.1772 266.739 65.7717 267.884 56.9959C269.028 48.22 278.535 43.1644 283.146 41.7335V35.5332C279.712 35.1517 278.535 30.6048 278.376 28.379C277.9 28.697 275.641 27.3272 275.038 25.5173C274.14 22.825 275.354 21.3992 277.884 20.4455C277.286 20.2964 276.651 18.7873 276.946 14.0706Z" fill="#141312"/>
<path d="M310.332 118.522C312.24 118.522 313.035 112.799 313.194 109.937C312.717 117.091 316.055 125.199 319.394 118.522C322.065 113.18 318.281 88.6334 316.055 77.0277L319.394 75.5969C318.917 73.2121 317.582 66.1533 316.055 56.9959C314.529 47.8385 302.701 43.0054 296.977 41.7335V35.5332C298.885 34.3885 299.68 30.2868 299.839 28.379C301.111 28.379 303.655 27.8067 303.655 25.5173C304.036 20.557 301.27 19.635 299.839 19.7939C301.747 9.49186 295.229 8.82413 291.731 9.77803C284.1 5.48549 277.214 9.77802 276.946 14.0706C276.564 20.1755 277.741 20.9068 278.377 20.2709C275.515 21.2248 274.084 22.6556 275.038 25.5173C275.641 27.3272 277.9 28.697 278.376 28.379C278.535 30.6048 279.712 35.1517 283.146 35.5332C283.146 36.4871 283.146 39.0626 283.146 41.7335C278.535 43.1644 269.028 48.22 267.884 56.9959C266.739 65.7717 265.499 91.1772 265.022 102.783L271.699 129.969L279.807 170.986C271.222 172.417 272.176 181.956 275.038 181.956C277.9 181.956 288.392 181.956 291.731 181.956C293.257 180.43 292.367 135.533 291.731 113.276C291.731 117.794 295.583 154.416 296.8 178.13C296.91 180.272 298.667 181.956 300.813 181.956C308.341 181.956 320.741 181.956 327.502 181.956C327.502 177.187 325.881 175.088 319.394 174.325C312.908 173.562 313.512 172.576 313.194 170.986L310.332 118.522ZM310.332 118.522C307.947 118.522 307.47 114.23 308.901 108.506C310.046 103.928 310.332 104.055 310.332 104.691C309.537 97.6954 307.757 83.228 306.993 81.3202" stroke="#CFC4C6" stroke-width="2" stroke-linecap="round" stroke-linejoin="round"/>
<path d="M137.677 24.8817C134.815 17.7274 132.43 17.2505 129.092 19.1583C128.456 17.5685 126.039 14.5796 121.461 15.3427C115.737 16.2966 109.537 19.1583 109.537 23.4508C109.537 26.8848 111.922 31.8769 112.876 34.4206C111.604 34.5796 109.06 36.3284 110.014 39.1901C110.968 42.0518 113.035 42.2108 114.306 42.0518C114.624 43.4827 116.691 46.5351 118.599 47.2982V53.0216C114.624 53.1806 104.195 55.2156 98.0902 65.8992C95.8008 70.0963 93.3207 73.6894 92.3668 74.9612L93.7976 76.3921C91.7309 80.6846 91.5083 86.2172 91.8898 89.2697C92.9033 97.3778 100.634 105.009 106.675 108.348V115.502H110.014V136.964H116C116 139.254 114.477 161.871 114 173C101.122 174.431 99.998 178.936 99.998 183.228C105.244 183.228 123.855 182.942 125 181.798C126.145 180.653 126.046 159.742 127 147.5L127.899 162.004L129.569 181.798L153.893 183.228V174.643C150.554 174.166 143.591 172.926 142.446 171.782C141.302 170.637 141.659 148.811 141.5 138L153.893 104.055C153.257 92.6083 151.222 68.0932 148.17 61.6067C145.117 55.1202 135.133 53.1806 130.523 53.0216V47.2982C131.667 46.1535 132.271 44.2775 132.43 43.4826C134.179 43.4826 137.677 41.7656 137.677 38.7132C137.677 35.6607 135.928 34.8976 134.815 34.4206C136.882 33.6257 139.966 30.605 137.677 24.8817Z" fill="#141312" stroke="#CFC4C6" stroke-width="2" stroke-linecap="round" stroke-linejoin="round"/>
<path d="M206.834 30.1281C207.597 32.4174 211.127 34.8976 212.081 35.8515C207.788 35.8515 207.311 38.2362 207.311 40.144C207.311 43.9596 211.286 44.9135 213.035 44.4365C213.035 47.8705 215.896 51.4318 217.327 52.0677V56.3602C197.486 59.7943 197.295 82.5924 199.68 93.5622L265.022 118.363C263.273 106.281 259.108 79.6353 256.437 69.7148C253.766 59.7943 240.062 56.6782 233.543 56.3602V52.0677C236.977 51.3046 238.472 46.6623 238.79 44.4365C239.744 44.1186 242.224 41.861 242.605 39.1901C242.987 36.5192 240.062 35.0565 238.79 34.8975C244.513 31.4635 244.99 28.6972 238.79 29.1742C242.224 24.5955 238.631 24.8816 236.405 25.3586C239.267 18.2044 234.02 21.0661 231.636 22.9738C230.872 14.9611 226.23 18.6813 224.004 21.543C220.57 13.5303 218.122 19.1583 217.327 22.9738C211.985 18.0136 209.696 23.4508 213.035 27.7433C211.445 27.2664 206.071 27.8387 206.834 30.1281Z" fill="#141312" stroke="#CFC4C6" stroke-width="2" stroke-linejoin="round"/>
<path d="M279.738 105.419C282.132 99.2405 273.392 92.9091 268.248 100.01C272.241 100.821 277.239 103.886 279.738 105.419L279.738 105.419Z" fill="#141312" stroke="#CFC4C6" stroke-width="2"/>
<path d="M282.41 40.9878C278.283 35.8039 268.408 40.1556 271.943 48.1797C274.658 45.1408 279.826 42.3722 282.41 40.9878L282.41 40.9878Z" fill="#141312" stroke="#CFC4C6" stroke-width="2"/>
<path d="M157.232 59.6988C157.232 60.1757 157.041 61.702 156.278 63.9913L163.432 67.8069L164.863 62.5605C165.658 63.0374 168.143 60.9377 169.156 58.7449C171.445 53.7846 168.202 50.6368 166.294 49.2059C167.407 46.0263 169.156 39.3808 167.248 38.2361C165.34 37.0914 162.319 45.0724 161.047 49.2059C161.047 45.2314 160.475 37.473 158.186 38.2361C155.896 38.9992 155.96 47.1392 156.278 51.1137C152.462 54.1662 155.324 58.109 157.232 59.6988Z" fill="#141312" stroke="#CFC4C6" stroke-width="2" stroke-linecap="round" stroke-linejoin="round"/>
<path d="M107.152 85.4539L104.29 83.5461C102.001 88.888 105.244 93.721 107.152 95.4698V85.4539Z" fill="#141312" stroke="#CFC4C6" stroke-width="2" stroke-linecap="round" stroke-linejoin="round"/>
<path d="M249.351 46.5706C247.681 48.8213 250.349 49.9296 254.649 55.3047L256.861 65.3099L270.693 66.7407C270.057 64.8329 268.084 59.0798 265.278 51.3295L265.278 44.8305C265.098 36.8424 260.696 31.8689 254.962 33.7189C250.374 35.1989 252.068 43.4973 253.489 47.4615C252.666 46.4143 250.687 44.7701 249.351 46.5706Z" fill="#141312" stroke="#CFC4C6" stroke-width="2" stroke-linejoin="round"/>
<path fill-rule="evenodd" clip-rule="evenodd" d="M183.791 85.454C178.545 86.4078 174.879 88.3156 163.432 96.4237C154.847 101.67 141.969 103.101 137.2 99.7624C135.676 98.6958 134.575 97.0181 133.658 95.6229C132.473 93.818 131.599 92.486 130.523 93.562C127.391 96.6935 129.716 100.387 130.409 101.488C130.455 101.56 130.493 101.621 130.523 101.67C129.092 101.352 125.372 103.864 125.753 108.824C126.078 113.052 129.66 113.307 132.188 113.487C132.626 113.518 133.032 113.547 133.384 113.594C143.4 113.276 164.386 111.877 168.202 108.824V115.025H173.925V137.918H176.16V157.766C176.16 159.975 177.951 161.766 180.16 161.766H181.079C181.556 164.468 182.224 170.255 181.079 171.782C180.602 172.417 179.012 172.417 177.105 172.417C173.289 172.417 168.202 172.417 168.202 177.505C168.202 185.394 177.874 184.702 186.95 184.052C189.396 183.877 191.798 183.705 193.957 183.705C195.864 182.942 196.5 169.397 195.864 163.196C196.878 169.397 199.22 182.179 200.484 183.705C201.7 185.173 212.058 184.382 217.855 183.939C218.967 183.854 219.912 183.782 220.592 183.741C223.883 185.579 235.305 185.36 238.201 183.705C240.812 182.213 241.919 173.462 241.671 167.426C241.769 167.446 241.869 167.466 241.97 167.487C244.077 170.767 246.2 176.663 247.348 180.748C247.266 180.784 247.241 181.28 247.375 182.751C247.852 187.998 259.187 185.136 260.141 183.705C260.863 182.622 258.85 173.06 256.588 165.996C260.262 166.628 260.181 164.636 260.109 162.873C260.093 162.482 260.077 162.103 260.103 161.766L256.764 135.057L260.103 133.149L256.764 113.594L263.591 101.67V78.7767L249.61 74.4841C248.815 72.7353 246.176 68.7608 241.979 66.853C237.782 64.9452 234.189 67.6479 232.917 69.2377C231.327 68.7608 227.516 68.57 224.082 71.6225C221.889 73.5724 221.831 76.3943 221.77 79.3879C221.712 82.252 221.651 85.2734 219.712 87.8387C218.396 89.5794 218.318 91.7218 218.833 93.8498C214.934 89.5529 209.85 86.4302 207.311 85.454C211.127 84.3093 210.977 80.0485 210.5 78.7767C216.224 76.8689 214.793 73.2123 213.362 71.6225C217.941 66.2806 213.362 61.7655 210.5 60.1757C211.264 51.0183 204.141 51.2727 200.484 52.5445C194.761 43.0056 188.243 48.57 185.699 52.5445C175.397 52.9261 175.047 60.6527 176.16 64.4682C170.055 69.4285 174.252 74.1662 177.114 75.915C174.443 81.6384 180.453 84.659 183.791 85.454ZM228.637 167.967C228.335 167.832 228.014 167.674 227.671 167.489C226.665 166.948 225.923 166.752 225.376 166.608C223.995 166.243 223.855 166.206 223.855 161.766C223.855 160.102 223.814 158.027 223.77 155.769C223.674 150.92 223.562 145.231 223.803 140.988C223.462 145.042 222.763 148.372 221.47 148.54C219.046 148.94 218.813 145.374 219 143.54C218.833 145.04 218.2 146.54 217 146.54C215.85 146.54 215.287 144.482 215.088 142.169L215.724 157.601C215.818 159.873 214.002 161.766 211.728 161.766H210.5C210.5 163.673 210.757 167.871 211.782 169.397L211.798 169.421C213.066 171.309 213.381 171.778 217.804 170.828C219.932 170.371 221.41 173.308 222.11 176.491C222.637 176.291 223.263 176.148 224.004 176.074C227.836 175.691 228.517 173.153 228.637 167.967Z" fill="#141312"/>
<path d="M163.432 96.4237L163.953 97.277C163.973 97.2652 163.992 97.2528 164.01 97.2397L163.432 96.4237ZM183.791 85.454L183.97 86.4378C184.436 86.3532 184.778 85.9539 184.791 85.4809C184.804 85.0079 184.483 84.5907 184.023 84.4811L183.791 85.454ZM137.2 99.7624L136.626 100.582L137.2 99.7624ZM133.658 95.6229L134.494 95.074L133.658 95.6229ZM130.523 93.562L129.815 92.8549L130.523 93.562ZM130.409 101.488L131.255 100.955L131.255 100.955L130.409 101.488ZM130.523 101.67L130.306 102.646C130.696 102.733 131.1 102.579 131.334 102.255C131.568 101.931 131.586 101.498 131.38 101.156L130.523 101.67ZM125.753 108.824L126.75 108.748L125.753 108.824ZM132.188 113.487L132.259 112.489H132.259L132.188 113.487ZM133.384 113.594L133.252 114.585C133.306 114.592 133.361 114.595 133.416 114.593L133.384 113.594ZM168.202 108.824H169.202C169.202 108.44 168.981 108.09 168.635 107.923C168.288 107.757 167.877 107.803 167.577 108.044L168.202 108.824ZM168.202 115.025H167.202C167.202 115.577 167.649 116.025 168.202 116.025V115.025ZM173.925 115.025H174.925C174.925 114.472 174.477 114.025 173.925 114.025V115.025ZM173.925 137.918H172.925C172.925 138.47 173.373 138.918 173.925 138.918V137.918ZM176.16 137.918H177.16C177.16 137.366 176.712 136.918 176.16 136.918V137.918ZM181.079 161.766L182.064 161.592C181.98 161.114 181.564 160.766 181.079 160.766V161.766ZM181.079 171.782L180.279 171.182H180.279L181.079 171.782ZM186.95 184.052L187.021 185.05L186.95 184.052ZM193.957 183.705V184.705C194.084 184.705 194.21 184.681 194.328 184.634L193.957 183.705ZM195.864 163.196L196.851 163.035C196.764 162.502 196.269 162.134 195.733 162.205C195.197 162.276 194.815 162.761 194.87 163.298L195.864 163.196ZM200.484 183.705L199.714 184.343L200.484 183.705ZM217.855 183.939L217.931 184.936H217.931L217.855 183.939ZM220.592 183.741L221.079 182.868C220.912 182.775 220.722 182.732 220.532 182.743L220.592 183.741ZM238.201 183.705L237.705 182.837L238.201 183.705ZM241.671 167.426L241.865 166.445C241.564 166.386 241.253 166.467 241.02 166.667C240.788 166.866 240.659 167.161 240.672 167.467L241.671 167.426ZM241.97 167.487L242.811 166.946C242.666 166.721 242.437 166.563 242.175 166.508L241.97 167.487ZM247.348 180.748L247.752 181.662C248.207 181.461 248.445 180.956 248.311 180.477L247.348 180.748ZM247.375 182.751L246.379 182.842L247.375 182.751ZM260.141 183.705L259.309 183.151L260.141 183.705ZM256.588 165.996L256.758 165.01C256.413 164.951 256.063 165.076 255.833 165.34C255.604 165.604 255.529 165.968 255.636 166.301L256.588 165.996ZM260.109 162.873L259.11 162.914V162.914L260.109 162.873ZM260.103 161.766L261.1 161.842C261.105 161.775 261.104 161.708 261.095 161.642L260.103 161.766ZM256.764 135.057L256.268 134.188C255.918 134.389 255.722 134.78 255.772 135.181L256.764 135.057ZM260.103 133.149L260.599 134.017C260.964 133.809 261.16 133.394 261.089 132.98L260.103 133.149ZM256.764 113.594L255.897 113.097C255.781 113.298 255.74 113.533 255.779 113.762L256.764 113.594ZM263.591 101.67L264.459 102.167C264.546 102.016 264.591 101.844 264.591 101.67H263.591ZM263.591 78.7767H264.591C264.591 78.3375 264.305 77.9496 263.885 77.8207L263.591 78.7767ZM249.61 74.4841L248.7 74.8979C248.818 75.1587 249.043 75.356 249.317 75.4401L249.61 74.4841ZM232.917 69.2377L232.63 70.1955C233.02 70.3128 233.443 70.1809 233.698 69.8624L232.917 69.2377ZM224.082 71.6225L223.418 70.875V70.8751L224.082 71.6225ZM221.77 79.3879L220.771 79.3675L221.77 79.3879ZM219.712 87.8387L218.914 87.2357L219.712 87.8387ZM218.833 93.8498L218.092 94.5219C218.399 94.8603 218.897 94.9475 219.301 94.7336C219.705 94.5196 219.912 94.0591 219.805 93.6149L218.833 93.8498ZM207.311 85.454L207.024 84.4961C206.614 84.619 206.328 84.9888 206.312 85.4161C206.296 85.8434 206.553 86.2338 206.952 86.3873L207.311 85.454ZM210.5 78.7767L210.184 77.828C209.926 77.9139 209.715 78.1009 209.598 78.3461C209.481 78.5913 209.469 78.8735 209.564 79.1278L210.5 78.7767ZM213.362 71.6225L212.603 70.9717C212.276 71.3531 212.283 71.918 212.619 72.2914L213.362 71.6225ZM210.5 60.1757L209.504 60.0927C209.471 60.4844 209.671 60.859 210.015 61.0499L210.5 60.1757ZM200.484 52.5445L199.627 53.059C199.871 53.4651 200.366 53.6446 200.813 53.489L200.484 52.5445ZM185.699 52.5445L185.736 53.5439C186.064 53.5317 186.365 53.3597 186.541 53.0836L185.699 52.5445ZM176.16 64.4682L176.791 65.2444C177.103 64.9906 177.233 64.5745 177.12 64.1882L176.16 64.4682ZM177.114 75.915L178.02 76.3379C178.236 75.8766 178.07 75.3272 177.636 75.0617L177.114 75.915ZM228.637 167.967L229.637 167.99C229.646 167.587 229.413 167.218 229.045 167.054L228.637 167.967ZM227.671 167.489L227.196 168.369V168.369L227.671 167.489ZM225.376 166.608L225.121 167.575H225.121L225.376 166.608ZM223.77 155.769L222.77 155.789L223.77 155.769ZM223.803 140.988L224.802 141.045C224.833 140.499 224.419 140.029 223.874 139.99C223.328 139.952 222.853 140.359 222.807 140.904L223.803 140.988ZM221.47 148.54L221.341 147.549C221.33 147.55 221.319 147.552 221.307 147.554L221.47 148.54ZM219 143.54L219.995 143.642C220.051 143.094 219.653 142.604 219.106 142.546C218.558 142.488 218.067 142.883 218.006 143.43L219 143.54ZM215.088 142.169L216.084 142.083C216.037 141.541 215.567 141.136 215.024 141.171C214.482 141.205 214.066 141.667 214.089 142.21L215.088 142.169ZM215.724 157.601L214.725 157.642L215.724 157.601ZM210.5 161.766V160.766C209.948 160.766 209.5 161.213 209.5 161.766H210.5ZM211.782 169.397L210.952 169.954L210.952 169.954L211.782 169.397ZM211.798 169.421L212.628 168.863L212.628 168.863L211.798 169.421ZM217.804 170.828L218.014 171.805L217.804 170.828ZM222.11 176.491L221.133 176.706C221.196 176.99 221.379 177.232 221.634 177.371C221.89 177.509 222.193 177.529 222.465 177.426L222.11 176.491ZM224.004 176.074L224.104 177.069H224.104L224.004 176.074ZM164.01 97.2397C175.464 89.1263 178.967 87.3475 183.97 86.4378L183.612 84.4701C178.123 85.4682 174.293 87.505 162.854 95.6077L164.01 97.2397ZM136.626 100.582C138.004 101.546 139.883 102.115 141.979 102.379C144.089 102.645 146.499 102.611 149.006 102.305C154.013 101.694 159.52 99.9862 163.953 97.277L162.911 95.5704C158.759 98.1076 153.535 99.738 148.764 100.32C146.383 100.61 144.142 100.636 142.228 100.395C140.3 100.152 138.78 99.6481 137.773 98.9432L136.626 100.582ZM132.823 96.1718C133.718 97.5353 134.919 99.3861 136.626 100.582L137.773 98.9432C136.434 98.0056 135.431 96.5009 134.494 95.074L132.823 96.1718ZM131.23 94.2691C131.381 94.1182 131.395 94.177 131.293 94.1763C131.214 94.1757 131.241 94.1379 131.404 94.2756C131.767 94.5831 132.193 95.2134 132.823 96.1718L134.494 95.074C133.938 94.2275 133.334 93.2893 132.695 92.7487C132.357 92.4622 131.889 92.1804 131.307 92.1763C130.701 92.1721 130.203 92.4678 129.815 92.8549L131.23 94.2691ZM131.255 100.955C130.91 100.405 130.252 99.3482 130.014 98.0996C129.787 96.9087 129.94 95.5585 131.23 94.2691L129.815 92.8549C127.973 94.6971 127.723 96.7595 128.049 98.4736C128.365 100.13 129.216 101.47 129.563 102.02L131.255 100.955ZM131.38 101.156C131.344 101.095 131.299 101.024 131.255 100.955L129.563 102.02C129.611 102.096 129.642 102.147 129.665 102.185L131.38 101.156ZM126.75 108.748C126.581 106.547 127.319 104.942 128.21 103.928C128.66 103.415 129.145 103.059 129.562 102.853C129.771 102.75 129.95 102.691 130.089 102.663C130.157 102.649 130.211 102.644 130.249 102.643C130.288 102.643 130.306 102.646 130.306 102.646L130.74 100.694C130.063 100.544 129.315 100.745 128.678 101.059C128.007 101.39 127.317 101.913 126.707 102.608C125.475 104.01 124.544 106.141 124.756 108.901L126.75 108.748ZM132.259 112.489C130.954 112.396 129.631 112.289 128.585 111.776C128.086 111.531 127.675 111.203 127.368 110.75C127.061 110.297 126.821 109.662 126.75 108.748L124.756 108.901C124.848 110.1 125.178 111.083 125.712 111.872C126.248 112.662 126.951 113.201 127.704 113.571C129.162 114.287 130.894 114.397 132.117 114.484L132.259 112.489ZM133.516 112.603C133.128 112.551 132.688 112.52 132.259 112.489L132.117 114.484C132.563 114.516 132.937 114.543 133.252 114.585L133.516 112.603ZM167.577 108.044C167.235 108.317 166.619 108.628 165.694 108.947C164.788 109.26 163.66 109.557 162.352 109.834C159.738 110.39 156.481 110.857 153.008 111.241C146.066 112.008 138.343 112.436 133.353 112.594L133.416 114.593C138.442 114.434 146.219 114.003 153.228 113.229C156.73 112.841 160.061 112.366 162.768 111.791C164.121 111.503 165.336 111.187 166.347 110.838C167.34 110.495 168.214 110.095 168.826 109.605L167.577 108.044ZM169.202 115.025V108.824H167.202V115.025H169.202ZM173.925 114.025H168.202V116.025H173.925V114.025ZM174.925 137.918V115.025H172.925V137.918H174.925ZM176.16 136.918H173.925V138.918H176.16V136.918ZM177.16 157.766V137.918H175.16V157.766H177.16ZM180.16 160.766C178.503 160.766 177.16 159.422 177.16 157.766H175.16C175.16 160.527 177.399 162.766 180.16 162.766V160.766ZM181.079 160.766H180.16V162.766H181.079V160.766ZM181.879 172.382C182.336 171.772 182.529 170.89 182.623 170.066C182.722 169.194 182.729 168.186 182.686 167.173C182.601 165.142 182.308 162.974 182.064 161.592L180.094 161.939C180.327 163.26 180.607 165.337 180.688 167.257C180.729 168.219 180.718 169.112 180.635 169.84C180.547 170.614 180.394 171.028 180.279 171.182L181.879 172.382ZM177.105 173.417C178.038 173.417 178.977 173.419 179.742 173.331C180.127 173.287 180.517 173.216 180.867 173.089C181.212 172.963 181.6 172.754 181.879 172.382L180.279 171.182C180.32 171.127 180.33 171.156 180.183 171.209C180.041 171.261 179.825 171.309 179.515 171.344C178.888 171.416 178.078 171.417 177.105 171.417V173.417ZM169.202 177.505C169.202 176.406 169.473 175.674 169.856 175.164C170.244 174.646 170.815 174.265 171.564 173.993C173.114 173.429 175.148 173.417 177.105 173.417V171.417C175.246 171.417 172.828 171.406 170.88 172.114C169.88 172.477 168.941 173.051 168.256 173.964C167.566 174.884 167.202 176.06 167.202 177.505H169.202ZM186.878 183.055C182.292 183.383 177.762 183.699 174.374 183.001C172.696 182.656 171.414 182.081 170.557 181.236C169.728 180.418 169.202 179.254 169.202 177.505H167.202C167.202 179.701 167.884 181.408 169.152 182.66C170.392 183.883 172.096 184.574 173.971 184.96C177.688 185.726 182.532 185.371 187.021 185.05L186.878 183.055ZM193.957 182.705C191.756 182.705 189.315 182.88 186.878 183.055L187.021 185.05C189.476 184.874 191.841 184.705 193.957 184.705V182.705ZM194.87 163.298C195.18 166.323 195.182 171.197 194.867 175.415C194.71 177.524 194.476 179.431 194.172 180.84C194.019 181.549 193.856 182.091 193.696 182.459C193.616 182.643 193.549 182.752 193.506 182.809C193.458 182.871 193.477 182.82 193.585 182.777L194.328 184.634C194.675 184.495 194.922 184.248 195.093 184.025C195.268 183.797 195.41 183.531 195.529 183.259C195.766 182.716 195.962 182.027 196.127 181.262C196.459 179.723 196.701 177.713 196.862 175.564C197.183 171.269 197.185 166.27 196.859 163.094L194.87 163.298ZM201.255 183.067C201.256 183.069 201.244 183.054 201.22 183.015C201.197 182.977 201.169 182.924 201.135 182.855C201.067 182.715 200.989 182.529 200.903 182.294C200.73 181.825 200.539 181.207 200.336 180.465C199.931 178.984 199.493 177.072 199.059 174.999C198.193 170.856 197.357 166.126 196.851 163.035L194.878 163.358C195.386 166.467 196.227 171.228 197.102 175.408C197.538 177.497 197.986 179.454 198.407 180.993C198.617 181.761 198.825 182.44 199.026 182.986C199.213 183.492 199.436 184.007 199.714 184.343L201.255 183.067ZM217.779 182.942C214.874 183.164 210.865 183.47 207.432 183.539C205.712 183.574 204.17 183.548 202.998 183.428C202.409 183.369 201.948 183.288 201.618 183.194C201.244 183.086 201.203 183.005 201.255 183.067L199.714 184.343C200.07 184.772 200.619 184.988 201.066 185.116C201.558 185.257 202.151 185.353 202.795 185.418C204.088 185.55 205.726 185.574 207.472 185.539C210.971 185.468 215.038 185.157 217.931 184.936L217.779 182.942ZM220.532 182.743C219.842 182.785 218.888 182.858 217.779 182.942L217.931 184.936C219.047 184.851 219.982 184.78 220.652 184.74L220.532 182.743ZM220.104 184.614C221.099 185.17 222.588 185.52 224.191 185.735C225.827 185.955 227.703 186.049 229.553 186.033C231.404 186.017 233.253 185.889 234.836 185.657C236.38 185.43 237.799 185.087 238.697 184.573L237.705 182.837C237.156 183.151 236.061 183.456 234.546 183.678C233.07 183.895 231.314 184.017 229.536 184.033C227.757 184.049 225.979 183.957 224.457 183.753C222.903 183.544 221.729 183.231 221.079 182.868L220.104 184.614ZM238.697 184.573C239.651 184.029 240.317 182.936 240.803 181.765C241.307 180.55 241.699 179.052 241.992 177.45C242.578 174.241 242.797 170.47 242.67 167.385L240.672 167.467C240.793 170.418 240.582 174.04 240.024 177.09C239.745 178.616 239.386 179.963 238.956 180.997C238.508 182.075 238.057 182.636 237.705 182.837L238.697 184.573ZM242.175 166.508C242.071 166.486 241.967 166.465 241.865 166.445L241.477 168.407C241.571 168.426 241.667 168.445 241.764 168.466L242.175 166.508ZM241.128 168.028C243.152 171.177 245.243 176.954 246.385 181.018L248.311 180.477C247.157 176.371 245.002 170.356 242.811 166.946L241.128 168.028ZM246.944 179.833C246.571 179.998 246.432 180.315 246.397 180.401C246.345 180.525 246.323 180.641 246.311 180.713C246.287 180.866 246.281 181.039 246.281 181.212C246.281 181.57 246.311 182.098 246.379 182.842L248.371 182.661C248.305 181.933 248.281 181.477 248.281 181.211C248.281 181.072 248.287 181.022 248.287 181.025C248.286 181.029 248.284 181.043 248.279 181.064C248.274 181.083 248.263 181.12 248.244 181.167C248.225 181.213 248.105 181.507 247.752 181.662L246.944 179.833ZM246.379 182.842C246.541 184.619 247.666 185.697 249.073 186.246C250.422 186.773 252.088 186.853 253.658 186.729C255.247 186.603 256.845 186.259 258.117 185.85C258.753 185.645 259.329 185.417 259.792 185.181C260.023 185.063 260.242 184.935 260.433 184.798C260.612 184.667 260.819 184.491 260.973 184.26L259.309 183.151C259.343 183.099 259.35 183.112 259.258 183.178C259.177 183.237 259.055 183.312 258.884 183.399C258.543 183.573 258.073 183.763 257.504 183.946C256.369 184.311 254.924 184.623 253.5 184.735C252.057 184.85 250.741 184.751 249.801 184.383C248.918 184.039 248.448 183.507 248.371 182.661L246.379 182.842ZM260.973 184.26C261.128 184.027 261.194 183.772 261.228 183.588C261.265 183.387 261.282 183.169 261.288 182.948C261.299 182.507 261.266 181.969 261.203 181.369C261.076 180.165 260.814 178.613 260.464 176.893C259.761 173.451 258.683 169.259 257.54 165.691L255.636 166.301C256.755 169.797 257.815 173.918 258.504 177.293C258.849 178.983 259.096 180.465 259.214 181.579C259.273 182.139 259.297 182.581 259.289 182.897C259.285 183.056 259.273 183.161 259.262 183.223C259.247 183.301 259.244 183.248 259.309 183.151L260.973 184.26ZM259.11 162.914C259.128 163.369 259.142 163.755 259.11 164.101C259.078 164.446 259.006 164.651 258.923 164.774C258.839 164.901 258.491 165.308 256.758 165.01L256.419 166.981C258.36 167.315 259.808 167.043 260.583 165.89C260.93 165.374 261.054 164.791 261.101 164.286C261.148 163.783 261.125 163.259 261.108 162.832L259.11 162.914ZM259.106 161.689C259.075 162.096 259.094 162.539 259.11 162.914L261.108 162.832C261.091 162.426 261.08 162.109 261.1 161.842L259.106 161.689ZM255.772 135.181L259.111 161.89L261.095 161.642L257.757 134.932L255.772 135.181ZM259.607 132.28L256.268 134.188L257.261 135.925L260.599 134.017L259.607 132.28ZM255.779 113.762L259.117 133.317L261.089 132.98L257.75 113.426L255.779 113.762ZM262.723 101.173L255.897 113.097L257.632 114.091L264.459 102.167L262.723 101.173ZM262.591 78.7767V101.67H264.591V78.7767H262.591ZM249.317 75.4401L263.298 79.7326L263.885 77.8207L249.904 73.5282L249.317 75.4401ZM241.565 67.7633C245.47 69.5381 247.966 73.2838 248.7 74.8979L250.521 74.0703C249.664 72.1868 246.883 67.9834 242.393 65.9426L241.565 67.7633ZM233.698 69.8624C234.241 69.1836 235.322 68.225 236.724 67.6616C238.098 67.1093 239.757 66.9414 241.565 67.7633L242.393 65.9426C240.004 64.8567 237.768 65.0864 235.978 65.8059C234.216 66.5143 232.865 67.702 232.136 68.613L233.698 69.8624ZM224.747 72.3699C227.871 69.5924 231.302 69.7974 232.63 70.1955L233.204 68.2799C231.352 67.7242 227.161 67.5476 223.418 70.875L224.747 72.3699ZM222.77 79.4082C222.833 76.3123 222.934 73.9809 224.747 72.3699L223.418 70.8751C220.843 73.164 220.829 76.4762 220.771 79.3675L222.77 79.4082ZM220.51 88.4416C222.673 85.5793 222.713 82.223 222.77 79.4082L220.771 79.3675C220.711 82.2811 220.628 84.9675 218.914 87.2357L220.51 88.4416ZM219.805 93.6149C219.327 91.6401 219.446 89.8493 220.51 88.4416L218.914 87.2357C217.347 89.3095 217.309 91.8035 217.861 94.0848L219.805 93.6149ZM206.952 86.3873C209.337 87.3046 214.292 90.3345 218.092 94.5219L219.573 93.1778C215.575 88.7712 210.362 85.5559 207.67 84.5206L206.952 86.3873ZM209.564 79.1278C209.724 79.5553 209.878 80.7212 209.552 81.8952C209.243 83.0071 208.534 84.043 207.024 84.4961L207.599 86.4118C209.904 85.7202 211.028 84.0534 211.479 82.4308C211.913 80.8703 211.753 79.2699 211.437 78.4256L209.564 79.1278ZM212.619 72.2914C213.236 72.9773 213.747 74.0067 213.623 74.9491C213.514 75.772 212.852 76.9387 210.184 77.828L210.817 79.7254C213.872 78.7069 215.357 77.0914 215.605 75.2115C215.838 73.4512 214.919 71.8575 214.105 70.9535L212.619 72.2914ZM210.015 61.0499C211.335 61.7833 213.004 63.1749 213.815 64.9146C214.212 65.7659 214.397 66.6856 214.259 67.6636C214.12 68.642 213.647 69.754 212.603 70.9717L214.121 72.2733C215.367 70.82 216.038 69.3644 216.239 67.9442C216.44 66.5235 216.161 65.2135 215.628 64.0696C214.579 61.8188 212.528 60.1579 210.986 59.3015L210.015 61.0499ZM200.813 53.489C202.535 52.8899 204.943 52.5879 206.754 53.3677C207.625 53.7426 208.372 54.3705 208.876 55.3858C209.389 56.4191 209.685 57.924 209.504 60.0927L211.497 60.2588C211.698 57.8487 211.389 55.9514 210.667 54.4966C209.936 53.0238 208.817 52.0778 207.545 51.5306C205.072 50.4662 202.09 50.9273 200.156 51.6L200.813 53.489ZM186.541 53.0836C187.758 51.1824 189.846 49.0468 192.152 48.4445C193.263 48.1544 194.437 48.214 195.656 48.8484C196.897 49.4943 198.256 50.7748 199.627 53.059L201.342 52.03C199.851 49.5448 198.25 47.9438 196.579 47.0743C194.887 46.1934 193.199 46.104 191.647 46.5094C188.627 47.2983 186.184 49.9321 184.857 52.0055L186.541 53.0836ZM177.12 64.1882C176.608 62.4317 176.457 59.8256 177.542 57.6682C178.58 55.6052 180.867 53.7242 185.736 53.5439L185.662 51.5452C180.229 51.7464 177.19 53.9195 175.756 56.7691C174.369 59.5242 174.6 62.6892 175.2 64.7482L177.12 64.1882ZM177.636 75.0617C176.31 74.252 174.769 72.7955 174.228 71.0926C173.966 70.2697 173.933 69.3845 174.272 68.4418C174.615 67.4872 175.366 66.4022 176.791 65.2444L175.53 63.6921C173.902 65.0144 172.888 66.3817 172.39 67.7651C171.889 69.1605 171.94 70.499 172.322 71.6992C173.068 74.0424 175.056 75.8292 176.593 76.7683L177.636 75.0617ZM184.023 84.4811C182.455 84.1078 180.311 83.2166 178.903 81.822C178.21 81.1368 177.727 80.3622 177.538 79.4952C177.351 78.6385 177.431 77.5997 178.02 76.3379L176.208 75.4921C175.461 77.0919 175.291 78.577 175.584 79.9213C175.875 81.2552 176.602 82.3586 177.496 83.2433C179.258 84.9886 181.789 86.0052 183.56 86.4268L184.023 84.4811ZM229.045 167.054C228.768 166.93 228.469 166.783 228.145 166.609L227.196 168.369C227.559 168.564 227.902 168.734 228.23 168.88L229.045 167.054ZM228.145 166.609C227.035 166.011 226.202 165.791 225.631 165.641L225.121 167.575C225.644 167.713 226.296 167.884 227.196 168.369L228.145 166.609ZM225.631 165.641C225.239 165.537 225.129 165.499 225.069 165.464C225.062 165.459 225.071 165.465 225.079 165.475C225.085 165.482 225.069 165.465 225.044 165.393C224.987 165.225 224.931 164.909 224.897 164.29C224.864 163.687 224.855 162.877 224.855 161.766H222.855C222.855 162.874 222.863 163.735 222.9 164.399C222.935 165.048 223 165.595 223.151 166.038C223.32 166.535 223.605 166.918 224.042 167.18C224.397 167.392 224.822 167.496 225.121 167.575L225.631 165.641ZM224.855 161.766C224.855 160.09 224.814 158.004 224.769 155.75L222.77 155.789C222.814 158.05 222.855 160.114 222.855 161.766H224.855ZM224.769 155.75C224.674 150.887 224.563 145.242 224.802 141.045L222.805 140.931C222.561 145.221 222.675 150.953 222.77 155.789L224.769 155.75ZM222.807 140.904C222.638 142.911 222.384 144.683 222.03 145.953C221.852 146.593 221.664 147.045 221.487 147.325C221.299 147.622 221.23 147.563 221.341 147.549L221.599 149.532C222.356 149.433 222.86 148.895 223.177 148.394C223.505 147.876 223.756 147.21 223.957 146.49C224.361 145.038 224.628 143.119 224.8 141.072L222.807 140.904ZM221.307 147.554C220.973 147.609 220.805 147.528 220.684 147.425C220.523 147.287 220.35 147.02 220.21 146.577C219.929 145.688 219.909 144.49 219.995 143.642L218.005 143.439C217.905 144.424 217.907 145.926 218.303 147.179C218.501 147.807 218.828 148.47 219.387 148.947C219.985 149.457 220.756 149.672 221.633 149.527L221.307 147.554ZM218.006 143.43C217.932 144.098 217.759 144.698 217.524 145.098C217.293 145.494 217.108 145.54 217 145.54V147.54C218.092 147.54 218.824 146.837 219.251 146.108C219.675 145.383 219.901 144.483 219.994 143.651L218.006 143.43ZM217 145.54C217.048 145.54 217.045 145.573 216.969 145.494C216.877 145.397 216.751 145.201 216.621 144.863C216.361 144.188 216.181 143.204 216.084 142.083L214.092 142.255C214.194 143.446 214.395 144.648 214.754 145.581C214.933 146.046 215.176 146.51 215.519 146.871C215.879 147.25 216.377 147.54 217 147.54V145.54ZM214.089 142.21L214.725 157.642L216.724 157.56L216.087 142.128L214.089 142.21ZM214.725 157.642C214.796 159.346 213.433 160.766 211.728 160.766V162.766C214.57 162.766 216.841 160.399 216.724 157.56L214.725 157.642ZM211.728 160.766H210.5V162.766H211.728V160.766ZM209.5 161.766C209.5 162.754 209.566 164.324 209.765 165.853C209.864 166.618 209.999 167.391 210.182 168.084C210.361 168.76 210.603 169.435 210.952 169.954L212.612 168.839C212.448 168.595 212.274 168.173 212.116 167.574C211.962 166.991 211.841 166.309 211.748 165.595C211.563 164.168 211.5 162.685 211.5 161.766H209.5ZM210.952 169.954L210.968 169.978L212.628 168.863L212.612 168.839L210.952 169.954ZM210.968 169.978C211.552 170.848 212.136 171.792 213.333 172.147C213.9 172.315 214.536 172.335 215.267 172.27C216 172.204 216.897 172.045 218.014 171.805L217.594 169.85C216.499 170.085 215.698 170.223 215.089 170.278C214.477 170.333 214.125 170.296 213.902 170.23C213.519 170.116 213.312 169.881 212.628 168.863L210.968 169.978ZM218.014 171.805C218.478 171.706 219.027 171.906 219.663 172.852C220.287 173.78 220.796 175.173 221.133 176.706L223.087 176.277C222.724 174.626 222.145 172.959 221.323 171.736C220.513 170.532 219.259 169.492 217.594 169.85L218.014 171.805ZM223.905 175.079C223.094 175.16 222.379 175.32 221.756 175.556L222.465 177.426C222.895 177.263 223.433 177.136 224.104 177.069L223.905 175.079ZM227.637 167.944C227.577 170.556 227.369 172.271 226.818 173.375C226.559 173.894 226.231 174.26 225.803 174.524C225.364 174.795 224.761 174.993 223.905 175.079L224.104 177.069C225.164 176.963 226.083 176.701 226.853 176.226C227.634 175.745 228.202 175.081 228.607 174.268C229.385 172.712 229.577 170.565 229.637 167.99L227.637 167.944Z" fill="#CFC4C6"/>
<path d="M223.051 140.303C222.733 139.826 222.097 138.777 222.097 138.395C222.097 138.014 222.733 132.831 223.051 130.287C222.288 135.247 217.804 135.216 214.942 134.58C212.558 136.01 211.604 141.734 208.742 139.826C206.453 138.3 207.788 136.328 209.219 134.58C205.88 136.646 198.822 139.54 197.295 134.58C196.268 131.241 200.634 131.241 205.404 127.902C203.114 118.745 209.855 116.456 213.512 116.456C212.558 110.732 215.419 106.44 221.143 105.963C222.097 105.168 211.604 102.624 219.235 94.0391" stroke="#CFC4C6" stroke-width="2" stroke-linecap="round" stroke-linejoin="round"/>
<path d="M138.401 168.175L140.308 142.897V140.989L137.924 138.604L136.016 142.897L136.493 146.235V150.051H135.062L133.154 148.143V150.051L131.723 153.39H129.339L127.431 151.482L126 147.189V139.558L128.385 127.158L134.108 109.987L137.924 103.31L143.17 99.0176L144.124 97.5868L145.078 93.2943L143.17 89.0017L139.831 88.5248L137.924 87.0939V85.1861L138.878 81.8475L137.924 79.9397L137.447 76.6011L138.878 72.7855L139.831 69.9238L141.739 65.6313L146.032 63.2465L146.986 60.8618L148.894 58.4771H150.801L152.709 59.9079L155.571 61.3387L161.294 63.2465C162.407 64.2004 164.633 66.2036 164.633 66.5852C164.633 66.9667 165.587 69.6058 166.064 70.8777L167.494 75.1702V80.8936L168.448 82.3245L169.402 85.1861L167.971 88.5248L164.633 89.0017L163.202 91.3865L160.34 94.7251L161.771 99.0176L168.448 103.31L173.218 109.987L177.51 106.649L180.372 107.126V101.402L181.803 97.5868H183.234L184.665 101.402L185.619 99.0176L187.526 96.6329L190.388 96.1559L192.773 96.6329L194.204 99.0176L193.25 104.264L188.48 109.987L187.526 112.849L183.234 117.619L177.033 121.434L173.218 121.911L167.494 119.049L168.448 139.558L165.11 140.989L167.018 172.945L167.494 175.329L170.833 178.191L171.31 182.007L174.172 185.345L172.741 188.207H167.494L164.156 189.161L160.34 188.207L155.094 189.638L151.755 188.207L147.463 189.638L144.124 188.207L140.308 189.161H138.401L136.016 188.207L130.769 189.161L128.862 187.253L129.339 183.437L131.246 182.007L131.723 178.191L137.447 173.898L138.401 168.175Z" fill="#E6E1E0"/>
<path d="M256.207 171.991L257.161 152.913L253.345 151.005L253.822 141.943L251.914 140.512L250.483 139.081L251.914 117.619L248.099 120.48L241.421 121.911L233.313 119.526L227.113 114.757L223.297 109.034L222.343 105.695L223.297 102.833L225.205 100.925H227.59L230.929 104.741L231.882 103.31L233.313 102.833L235.221 104.741L235.698 109.987L237.606 112.372L242.852 113.803L245.237 112.372L244.283 109.987L249.53 104.264L253.822 101.402L260.976 99.9715V96.1559L250.483 90.9095L246.668 88.0478L248.099 81.3706L266.7 64.2004L275.762 71.8316L279.577 81.3706L280.054 85.1861L278.623 88.0478L277.193 88.5248H274.331L273.377 91.8634L269.084 95.202L268.607 96.6329L269.084 99.9715L278.623 103.31L284.347 109.034L282.916 111.418L284.824 112.849L295.794 128.588L300.086 138.127L299.609 141.466L297.701 141.943L294.84 141.466L292.455 137.173L292.932 139.081L291.024 140.512L289.116 139.081L287.685 135.266V131.45L282.439 123.819L277.193 117.619L279.577 140.512L277.193 141.943L279.577 151.005L277.193 151.482L281.962 172.945L285.778 181.053C286.096 182.484 286.731 185.536 286.731 186.299C286.731 187.062 285.46 188.525 284.824 189.161L280.054 190.592L272.9 189.161L270.992 187.253L270.515 183.914L272.423 177.714L266.7 153.867V177.714L265.269 186.776L262.884 188.684H256.207H248.576L246.191 186.776V182.96L249.53 180.099L255.253 176.283L256.207 171.991Z" fill="#E6E1E0"/>
<circle cx="258.581" cy="81.6227" r="3.76948" stroke="#141312" stroke-width="2"/>
<circle cx="270.028" cy="81.6227" r="3.76948" stroke="#141312" stroke-width="2"/>
<path d="M264.782 81.6228C262.874 84.9614 260.012 85.9153 263.351 87.8231" stroke="#141312" stroke-width="2" stroke-linecap="round"/>
<path d="M262.397 81.6228H266.213" stroke="#141312" stroke-width="2"/>
<path d="M273.844 80.6689H275.752" stroke="#141312" stroke-width="2" stroke-linecap="round"/>
<path d="M252.858 80.6689H254.766" stroke="#141312" stroke-width="2" stroke-linecap="round"/>
<path d="M250.937 66.5852C254.752 59.431 264.305 59.6833 268.12 63.0219C269.551 61.7501 273.653 60.1602 276.705 65.8836C279.249 70.6531 285.754 71.13 284.323 78.2843C282.892 85.4385 288.629 87.8232 287.198 91.1619C285.767 94.5005 281.634 93.5466 280.521 92.5927C280.362 94.5005 279.09 96.4083 277.182 97.3622C273.844 99.0315 267.643 97.8391 268.12 95.9313L270.982 94.5005L273.367 91.1619L274.798 88.7771H277.659L280.044 87.3463L280.521 83.5307L279.09 81.146L276.705 79.7151L275.751 76.3765L271.936 73.9917L270.982 71.13L269.551 68.7453H266.689L265.736 71.607L263.828 73.9917L261.92 74.4687H258.581H255.5L253.335 76.3765L252.381 79.7151L249.519 80.1921L248.088 81.6229L247.612 84.9615L249.042 88.3002L253.335 88.7771L254.766 91.1619L258.581 95.2021C261.92 96.6329 260.966 98.3161 254.766 98.3161C250.124 98.3161 248.883 94.8185 249.519 93.0697C248.565 94.6595 244.63 94.5005 243.782 92.5927C241.875 88.3001 246.167 90.208 245.213 79.7151C244.392 70.6778 248.647 70.8777 250.937 66.5852Z" fill="#141312" stroke="#E6E1E0" stroke-linecap="round" stroke-linejoin="round"/>
<path d="M260.953 96.1558V99.9713C257.614 100.925 254.275 99.9713 249.983 103.787C246.537 106.85 245.054 109.192 244.259 110.464L245.213 111.895M268.584 96.1558V99.9713C270.333 100.607 279.077 101.879 284.323 109.51L280.031 115.711M251.414 116.665L245.213 111.895M245.213 111.895C243.783 113.803 241.875 113.803 239.967 113.326C238.059 112.849 235.992 111.418 235.674 109.987C235.992 107.285 235.19 104.73 234.244 103.31C233.29 101.879 230.905 102.833 230.905 105.695C228.997 101.879 227.089 99.0175 224.228 101.879C219.737 106.37 224.864 112.054 228.52 115.711C232.177 119.367 235.733 120.728 239.967 121.434C245.69 122.388 249.824 119.844 251.414 117.618" stroke="#141312" stroke-width="2" stroke-linecap="round" stroke-linejoin="round"/>
<path d="M261.682 101.535C262.456 101.535 263.222 101.655 264 101.655C264.608 101.655 265.144 101.535 265.736 101.535" stroke="#141312" stroke-width="2" stroke-linecap="round"/>
<path d="M253.869 142.496L253.466 149.864C253.415 150.792 254.126 151.585 255.054 151.636V151.636C255.972 151.686 256.679 152.463 256.65 153.381C256.354 162.959 256.611 173.309 255.354 176.491C253.691 180.699 244.641 179.249 245.759 185.997C246.401 189.876 259.571 189.347 263.364 188.337C263.999 188.168 264.67 187.895 265.014 187.335C267.481 183.32 266.676 161.676 266.676 152.913" stroke="#141312" stroke-width="2" stroke-linecap="round" stroke-linejoin="round"/>
<path d="M254.766 141.718C256.956 141.718 261.255 141.842 265.259 141.774M274.798 141.718C272.89 141.774 269.104 141.708 265.259 141.774M265.259 141.774V148.872M258.105 151.734C267.167 151.257 270.028 151.005 274.798 151.005" stroke="#141312" stroke-width="2" stroke-linecap="round" stroke-linejoin="round"/>
<path d="M255.836 176.398C256.769 175.97 257.014 175.916 258.042 176.346C259.424 176.925 259.956 177.584 260.708 178.794C260.922 179.138 260.796 178.887 260.877 178.611C260.967 178.3 261.35 177.874 261.617 177.696C262.239 177.28 263.058 177.151 263.794 177.191" stroke="#141312" stroke-width="2" stroke-linecap="round"/>
<path d="M272.399 175.687C273.327 175.666 274.7 175.211 275.5 175.833C275.928 176.166 276.368 176.615 276.705 177.038C276.858 177.231 276.93 177.595 276.93 177.144C276.93 175.678 280.031 173.421 282.415 174.375" stroke="#141312" stroke-width="2" stroke-linecap="round"/>
<path d="M252.202 179.543C253.439 180.923 253.785 183.222 253.933 185.011C254.015 186.009 253.944 186.998 253.889 187.994" stroke="#141312" stroke-width="2" stroke-linecap="round"/>
<path d="M286.231 185.822C283.369 178.668 274.692 178.005 270.969 182.96" stroke="#141312" stroke-width="2" stroke-linecap="round"/>
<path d="M256.9 167.858C259.111 168.875 261.312 168.696 263.654 168.824" stroke="#141312" stroke-width="2" stroke-linecap="round"/>
<path d="M270.492 167.698C271.846 167.698 276.215 168.175 279.077 166.267" stroke="#141312" stroke-width="2" stroke-linecap="round"/>
<path d="M259.701 171.235C259.684 171.547 259.696 171.587 259.437 171.699" stroke="#141312" stroke-width="2" stroke-linecap="round"/>
<path d="M262.546 171.63C262.561 171.851 262.614 171.792 262.771 171.881" stroke="#141312" stroke-width="2" stroke-linecap="round"/>
<path d="M272.996 171.037C272.936 171.515 272.757 171.018 272.757 170.798" stroke="#141312" stroke-width="2" stroke-linecap="round"/>
<path d="M275.142 170.798H275.38" stroke="#141312" stroke-width="2" stroke-linecap="round"/>
<path d="M163.897 174.375C162.467 175.329 158.365 177.237 153.405 177.237M140.05 174.375C142.276 175.329 147.395 177.237 150.066 177.237" stroke="#141312" stroke-width="2" stroke-linecap="round"/>
<path d="M163.42 72.7855C162.149 72.1495 158.269 70.8777 152.928 70.8777C147.586 70.8777 143.707 72.1495 142.435 72.7855" stroke="#E6E1E0" stroke-width="2" stroke-linecap="round" stroke-linejoin="round"/>
<path d="M166.282 73.2623C167.713 74.2162 168.19 77.0779 167.713 80.8935C165.606 80.8935 163.579 79.0527 161.898 77.7824C160.361 76.6211 157.82 75.6471 153.881 75.6471C149.117 75.6471 146.149 76.7007 144.515 77.8792C143.205 78.8237 141.88 80.1459 140.297 80.4626L138.142 80.8935C136.234 76.601 138.46 73.5803 139.096 72.7854C140.05 63.7234 145.773 64.2003 146.727 61.3386C147.681 58.4769 148.635 58 150.066 58C151.497 58 152.451 60.8617 155.789 61.3386C164.565 63.2464 166.441 70.0827 166.282 73.2623Z" fill="#141312" stroke="#E6E1E0" stroke-linecap="round" stroke-linejoin="round"/>
<path d="M141 73C146.5 69 160.5 69 164.5 72.5" stroke="#E6E1E0" stroke-linecap="round" stroke-linejoin="round"/>
<circle cx="4.76948" cy="4.76948" r="3.76948" transform="matrix(-1 0 0 1 164.374 77.5549)" stroke="#141312" stroke-width="2"/>
<circle cx="4.76948" cy="4.76948" r="3.76948" transform="matrix(-1 0 0 1 152.927 77.5549)" stroke="#141312" stroke-width="2"/>
<path fill-rule="evenodd" clip-rule="evenodd" d="M166.765 81.9679C167.518 82.4314 168.144 83.3176 168.144 84.4848C168.144 85.9635 167.726 86.8547 167.151 87.3881C166.561 87.9342 165.646 88.2543 164.361 88.2543H163.743L163.466 88.8071C162.576 90.5882 161.376 92.046 159.826 93.0606C158.28 94.0722 156.332 94.6788 153.881 94.6788C151.135 94.6788 148.935 94.1662 147.28 93.2103C145.646 92.2662 144.487 90.8585 143.847 88.9381L143.619 88.2543H142.898C142.153 88.2543 141.051 88.0607 140.17 87.4895C139.346 86.9559 138.665 86.07 138.665 84.4848C138.665 82.8577 139.335 82.1555 139.852 81.8841C140.139 81.7336 140.406 81.6976 140.578 81.7138C140.609 81.7167 140.633 81.7204 140.651 81.7242C140.931 82.1209 141.467 82.2645 141.915 82.0406C142.408 81.7936 142.609 81.1929 142.362 80.6989C142.02 80.0155 141.303 79.7732 140.766 79.7226C140.18 79.6674 139.527 79.7961 138.923 80.1131C137.658 80.7767 136.665 82.2207 136.665 84.4848C136.665 86.7907 137.726 88.2896 139.082 89.168C140.101 89.828 141.253 90.1212 142.187 90.2168C143.019 92.2726 144.403 93.8582 146.28 94.9422C148.328 96.1254 150.904 96.6788 153.881 96.6788C156.678 96.6788 159.015 95.981 160.921 94.7341C162.654 93.6002 163.984 92.0417 164.976 90.2336C166.329 90.1408 167.568 89.728 168.51 88.855C169.607 87.8383 170.144 86.3447 170.144 84.4848C170.144 82.5518 169.094 81.0533 167.813 80.2648C166.595 79.5149 164.834 79.2592 163.654 80.4391C163.263 80.8296 163.263 81.4627 163.654 81.8533C164.044 82.2438 164.677 82.2438 165.068 81.8533C165.319 81.6023 165.949 81.4659 166.765 81.9679ZM140.701 81.7401C140.702 81.7397 140.698 81.737 140.687 81.7334C140.696 81.7387 140.701 81.7405 140.701 81.7401Z" fill="#141312"/>
<path d="M152.914 82.0996C155.312 82.0996 155.789 85.1859 153.405 86.6168" stroke="#141312" stroke-width="2" stroke-linecap="round"/>
<path d="M155.299 82.0996H151.483" stroke="#141312" stroke-width="2"/>
<path d="M143.852 81.1458H141.944" stroke="#141312" stroke-width="2" stroke-linecap="round"/>
<path d="M167.471 119.049L168.377 138.057C168.424 139.053 167.735 139.933 166.757 140.127V140.127C165.779 140.321 165.09 141.202 165.138 142.199L166.615 172.83C166.701 174.596 168.055 175.992 169.381 177.162C170.729 178.35 171.596 180.271 170.868 183.052C169.899 187.023 151.974 184.817 151.974 183.935" stroke="#141312" stroke-width="2" stroke-linecap="round" stroke-linejoin="round"/>
<path d="M138.805 131.927L138.032 137.501C137.908 138.399 138.454 139.253 139.32 139.517V139.517C140.15 139.77 140.691 140.567 140.62 141.432L138.135 171.468C137.957 173.62 135.982 175.15 134.083 176.178C132.377 177.103 130.988 178.833 130.988 181.641C130.988 185.653 149.535 186.308 151.974 184.08" stroke="#141312" stroke-width="2" stroke-linecap="round" stroke-linejoin="round"/>
<path d="M159.605 94.7249C161.131 94.7249 161.513 97.5866 161.513 99.0174C163.42 99.4944 168.217 102.245 172.959 109.033C174.625 111.418 176.056 105.695 179.872 106.649M145.773 93.771C144.629 94.5341 144.024 97.5866 143.865 99.0174C135.757 102.356 132.96 111.778 128.838 126.203C123.592 144.804 126.695 152.436 129.557 153.389C133.373 154.153 133.373 147.666 132.419 145.281C133.055 147.348 133.561 150.051 135.28 150.051C136.711 150.051 136.711 148.62 135.757 143.374C136.393 142.102 138.091 136.029 138.854 131.45C139.172 127.475 139.808 121.816 139.808 117.618" stroke="#141312" stroke-width="2" stroke-linecap="round" stroke-linejoin="round"/>
<path d="M162.467 141.466C157.348 142.368 146.181 142.368 143.389 141.466M151.764 142.82V186.776" stroke="#141312" stroke-width="2" stroke-linecap="round"/>
<path d="M171.529 182.96C172.483 183.278 174.295 184.487 173.913 186.776C173.532 189.065 169.144 188.366 167.713 187.73C166.6 188.843 163.516 190.401 160.082 187.73C158.81 188.843 153.786 190.401 151.497 187.73C150.066 189.002 145.773 190.782 143.866 187.73C142.117 189.002 139.287 190.782 136.234 187.73C133.85 188.684 129.843 189.828 129.08 186.776C128.317 183.723 129.716 182.642 130.511 182.483" stroke="#141312" stroke-width="2" stroke-linecap="round"/>
<path d="M163.063 170.679C161.286 171.117 159.312 171.871 157.459 171.871" stroke="#141312" stroke-width="2" stroke-linecap="round"/>
<path d="M145.773 171.037C144.818 171.029 143.923 170.994 142.991 170.798C142.749 170.747 142.568 170.679 142.316 170.679" stroke="#141312" stroke-width="2" stroke-linecap="round"/>
<path d="M167.117 176.879C165.618 177.753 163.712 179.221 161.91 179.264C160.902 179.288 160.423 179.057 159.631 178.456C159.112 178.062 158.536 177.795 157.935 177.595" stroke="#141312" stroke-width="2" stroke-linecap="round"/>
<path d="M144.581 176.999C142.919 178.173 140.506 180.407 138.414 179.012C137.77 178.583 137.051 178.302 136.427 177.84C136.144 177.63 135.958 177.224 135.638 177.118" stroke="#141312" stroke-width="2" stroke-linecap="round"/>
<path d="M153.047 96.0366C152.668 97.4564 152.689 99.0943 152.689 100.568" stroke="#141312" stroke-width="2" stroke-linecap="round"/>
<path d="M152.689 101.283C152.689 103.458 152.808 105.706 152.808 107.841" stroke="#141312" stroke-width="2" stroke-linecap="round"/>
<path d="M163.536 107.603C161.986 107.643 160.438 107.722 158.886 107.722" stroke="#141312" stroke-width="2" stroke-linecap="round"/>
<path d="M154.001 64.0811C155.199 65.0297 156.624 66.251 156.624 67.8966" stroke="#E6E1E0" stroke-linecap="round"/>
<path d="M159.247 65.6311C160.253 66.1491 160.559 66.9597 160.559 68.0158" stroke="#E6E1E0" stroke-linecap="round"/>
<path d="M158.532 73.5007C158.824 73.6555 158.889 73.772 158.889 74.0969" stroke="#E6E1E0" stroke-linecap="round"/>
<path d="M163.54 75.1702V75.4086" stroke="#E6E1E0" stroke-linecap="round"/>
<path d="M141.004 75.8855C140.728 76.3159 140.527 76.7999 140.527 77.3163" stroke="#E6E1E0" stroke-linecap="round"/>
<path d="M134.327 142.658C132.191 142.202 130.018 141.534 127.848 141.254C127.429 141.2 127.272 141.214 126.934 140.989" stroke="#141312" stroke-width="2" stroke-linecap="round"/>
<path d="M128.603 145.52C128.603 147.3 128.603 149.079 128.603 150.859C128.603 151.326 128.404 152.217 128.842 152.436" stroke="#141312" stroke-width="2" stroke-linecap="round"/>
<path d="M251.891 114.28L250.546 138.546C250.496 139.464 251.077 140.298 251.955 140.568L253.322 140.989" stroke="#141312" stroke-width="2" stroke-linecap="round"/>
<path d="M225.36 102.893C226.13 104.187 226.875 105.497 227.782 106.702C227.862 106.808 228.135 107.305 228.341 107.305" stroke="#141312" stroke-width="2" stroke-linecap="round"/>
<path d="M222.797 104.741C223.644 105.973 224.489 107.207 225.42 108.378C225.872 108.946 226.655 109.477 226.97 110.107" stroke="#141312" stroke-width="2" stroke-linecap="round"/>
<path d="M257.137 81.8473L257.154 81.8307C257.935 81.0497 259.201 81.0497 259.982 81.8307L259.999 81.8473" stroke="#141312" stroke-width="2" stroke-linecap="round"/>
<path d="M267.63 81.8473L267.647 81.8307C268.428 81.0497 269.694 81.0497 270.475 81.8307L270.492 81.8473" stroke="#141312" stroke-width="2" stroke-linecap="round"/>
<path d="M149.198 88.5247C150.629 89.4786 152.537 90.4325 155.398 90.4325C154.921 92.3402 153.49 94.725 150.629 94.248C148.244 93.8506 147.767 90.4325 149.198 88.5247Z" stroke="#141312" stroke-width="2" stroke-linecap="round" stroke-linejoin="round"/>
<path d="M149.198 89.9555C151.583 90.4324 153.013 92.3402 152.536 93.771L154.921 90.9094L150.152 89.4785L149.198 89.9555Z" fill="#141312"/>
<path d="M282.892 111.418C287.662 114.757 293.862 125.727 296.247 130.019C298.632 134.312 301.493 140.512 298.632 141.943C295.383 143.567 292.908 139.558 291.954 135.266C292.59 137.491 292.908 140.894 291 140.512C288.616 140.035 288.139 137.173 287.662 132.881C287.28 129.447 281.302 121.593 277.169 117.619L279.855 139.108C279.96 139.949 279.523 140.766 278.765 141.145L277.169 141.943" stroke="#141312" stroke-width="2" stroke-linecap="round" stroke-linejoin="round"/>
<path d="M277.646 141.943L279.554 151.005H277.646C278.441 157.841 281.398 172.872 284.323 178.191C289.57 187.73 284.323 191.659 276.215 190.115C270.573 189.04 269.538 186.776 271.923 179.622C272.776 177.062 270.015 171.037 267.153 152.436" stroke="#141312" stroke-width="2" stroke-linecap="round" stroke-linejoin="round"/>
<path d="M296.128 135.146C297.127 137.252 298.291 139.35 298.989 141.585" stroke="#141312" stroke-width="2" stroke-linecap="round"/>
<path d="M180.16 108.343C178.729 100.235 183.021 92.604 184.452 102.143C185.565 98.4863 188.363 93.9395 192.56 97.3735C196.757 100.808 190.652 108.184 187.314 111.682" stroke="#141312" stroke-width="2" stroke-linecap="round" stroke-linejoin="round"/>
<path d="M187.503 112.372C184.641 117.618 176.056 126.681 167.471 119.049" stroke="#141312" stroke-width="2" stroke-linecap="round" stroke-linejoin="round"/>
<path d="M180.706 110.464C181.964 111.683 183.921 113.168 185.741 112.518C186.094 112.392 186.421 112.225 186.787 112.134" stroke="#141312" stroke-width="2" stroke-linecap="round"/>
<path d="M187.264 103.31C188.611 101.218 190.204 99.219 191.318 96.9905" stroke="#141312" stroke-width="2" stroke-linecap="round"/>
<path d="M189.172 104.979C190.507 103.197 191.827 101.409 193.107 99.5872C193.234 99.4069 193.396 99.342 193.465 99.1367" stroke="#141312" stroke-width="2" stroke-linecap="round"/>
<path d="M168.179 108.556C167.941 110.669 167.773 112.813 167.397 114.908C167.347 115.189 167.333 115.426 167.329 115.709" stroke="#141312" stroke-width="2" stroke-linecap="round"/>
<path d="M146.962 82.8012L148.393 81.3704L149.824 82.8012" stroke="#141312" stroke-width="2" stroke-linecap="round" stroke-linejoin="round"/>
<path d="M157.932 82.3244L159.363 80.8936L160.794 82.3244" stroke="#141312" stroke-width="2" stroke-linecap="round" stroke-linejoin="round"/>
<path d="M263.337 90.1899C262.01 90.3443 260.953 90.443 260.953 91.8632C261.907 95.6788 270.333 92.3402 270.015 90.4324C269.538 87.5707 266.676 89.4785 264.768 89.9554C264.281 90.0773 263.793 90.1369 263.337 90.1899ZM263.337 90.1899L264.768 93.5413M266.676 89.9554L267.63 92.3402" stroke="#141312" stroke-width="2" stroke-linecap="round" stroke-linejoin="round"/>
<path fill-rule="evenodd" clip-rule="evenodd" d="M267.518 69.6936C268.294 69.622 268.865 69.5908 269.329 69.8027C269.691 69.9682 270.196 70.3908 270.479 71.803C270.754 73.1778 271.292 74.0799 271.977 74.746C272.435 75.191 272.999 75.5472 273.434 75.8222L273.434 75.8222L273.434 75.8223C273.578 75.9133 273.708 75.9954 273.816 76.0689C274.297 76.3981 274.653 76.7276 274.901 77.3014C275.162 77.9077 275.343 78.8858 275.232 80.5799C275.197 80.9773 275.403 81.3741 275.781 81.5633C276.224 81.7846 276.752 81.6469 277.035 81.2604C277.067 81.2523 277.115 81.2433 277.184 81.2374C277.427 81.2171 277.776 81.2637 278.135 81.4294C278.795 81.7338 279.521 82.4529 279.521 84.0075C279.521 85.332 279.29 86.1607 279 86.6794C278.723 87.1755 278.36 87.4464 277.949 87.608C277.512 87.7798 276.996 87.8366 276.43 87.8366C276.15 87.8366 275.875 87.8232 275.6 87.8083L275.525 87.8042H275.525C275.283 87.791 275.026 87.777 274.798 87.777H274.077L273.849 88.4608C272.547 92.3667 269.099 95.4082 263.828 95.4082C259.152 95.4082 256.075 92.0206 254.23 88.3298L253.918 87.7061L253.225 87.7831C251.204 88.0076 250.13 87.6375 249.546 87.0921C248.953 86.5385 248.612 85.5718 248.612 84.0075C248.612 82.8385 249.236 81.9525 249.985 81.4899C250.796 80.9891 251.423 81.1248 251.674 81.376C252.065 81.7665 252.698 81.7665 253.088 81.376C253.284 81.1807 253.381 80.9248 253.381 80.6689C253.381 77.7172 254.149 76.5997 254.962 76.0916C255.412 75.8106 255.98 75.6453 256.689 75.558C257.404 75.47 258.187 75.4686 259.059 75.4686C259.261 75.4686 259.469 75.4707 259.679 75.4727H259.679C260.246 75.4783 260.828 75.4841 261.368 75.4501C262.133 75.4018 262.922 75.2713 263.687 74.9112C265.262 74.1699 266.436 72.6084 267.407 69.775C267.412 69.7612 267.423 69.7416 267.447 69.7233C267.47 69.7049 267.497 69.6956 267.518 69.6936ZM251.45 79.1727C251.683 76.7959 252.508 75.2669 253.902 74.3956C254.693 73.9016 255.579 73.6795 256.444 73.573C257.292 73.4686 258.191 73.4686 259.026 73.4686H259.026H259.059C259.311 73.4686 259.548 73.4709 259.774 73.4732C260.309 73.4785 260.78 73.4832 261.242 73.454C261.873 73.4142 262.385 73.3136 262.835 73.1015C263.692 72.6984 264.616 71.751 265.515 69.1269C265.788 68.3304 266.514 67.7777 267.335 67.702L267.41 67.695C268.09 67.6314 269.168 67.5306 270.16 67.9835C271.291 68.5 272.077 69.5987 272.44 71.4108C272.642 72.4207 272.998 72.9495 273.371 73.3118C273.67 73.6028 273.959 73.7847 274.326 74.016L274.326 74.016C274.51 74.1313 274.712 74.2588 274.945 74.4183C275.597 74.8642 276.284 75.4588 276.737 76.5095C277.048 77.2297 277.226 78.1135 277.26 79.2331C277.805 79.2275 278.404 79.351 278.973 79.6133C280.34 80.2438 281.521 81.671 281.521 84.0075C281.521 85.5448 281.256 86.7431 280.746 87.6553C280.223 88.59 279.483 89.1538 278.681 89.4691C277.906 89.7742 277.101 89.8366 276.43 89.8366C276.091 89.8366 275.769 89.8203 275.492 89.8054L275.486 89.805C273.752 94.136 269.687 97.4082 263.828 97.4082C258.309 97.4082 254.785 93.5871 252.756 89.8299C250.81 89.9435 249.261 89.5617 248.181 88.5542C246.986 87.4385 246.612 85.7819 246.612 84.0075C246.612 82.0764 247.656 80.5777 248.934 79.7883C249.66 79.3405 250.577 79.069 251.45 79.1727ZM276.985 81.2789C276.985 81.2785 276.989 81.2756 277 81.2713C276.991 81.2772 276.986 81.2793 276.985 81.2789Z" fill="#141312"/>
<path d="M255.625 66.75C254.07 67.4551 253.25 67.9807 253.25 69.75" stroke="#E6E1E0" stroke-linecap="round"/>
<path d="M256.75 69.75C256.12 70.4655 255.426 71.1473 255 72" stroke="#E6E1E0" stroke-linecap="round"/>
</g>
<defs>
<clipPath id="clip0_2291_350">
<rect width="428" height="200" fill="white"/>
</clipPath>
</defs>
</svg>
