<svg width="202" height="200" viewBox="0 0 202 200" fill="none" xmlns="http://www.w3.org/2000/svg">
<g clip-path="url(#clip0_2289_203)">
<path d="M86.2153 181.162C87.9755 182.335 93.0214 184.682 99.1234 184.682M115.552 181.162C112.814 182.335 106.516 184.682 103.23 184.682" stroke="#E6E1E0" stroke-width="2" stroke-linecap="round"/>
<path d="M87.8343 120.803L88.5623 119.555C88.3143 120.051 88.0728 120.462 87.8343 120.803L80.3481 133.637C78.9791 131.094 77.0624 125.54 80.3481 123.662C84.0211 121.564 85.8171 123.688 87.8343 120.803Z" fill="#E6E1E0"/>
<path d="M88.5623 99.0197L87.3888 87.2851C78.0012 85.877 80.7392 96.4772 83.2817 101.953L88.5623 99.0197Z" fill="#E6E1E0" stroke="#E6E1E0" stroke-width="2" stroke-linecap="round" stroke-linejoin="round"/>
<path d="M112.618 89.0454C113.596 94.9127 115.2 111.576 116.139 128.943C120.246 130.703 123.414 89.0454 112.618 89.0454Z" fill="#E6E1E0" stroke="#E6E1E0" stroke-linecap="round" stroke-linejoin="round"/>
<path d="M80.3482 61.4691C74.4809 62.0558 71.5473 60.8824 72.134 74.9639L73.8942 77.3108V101.953M73.8942 120.142C72.9163 126.596 71.8993 140.325 75.6544 143.611C79.4094 146.897 82.8907 147.131 84.4553 146.545" stroke="#E6E1E0" stroke-width="2" stroke-linecap="round" stroke-linejoin="round"/>
<path d="M119.072 60.2957C120.832 60.2957 123.179 59.5916 123.179 70.8568C123.179 76.9588 122.592 76.7241 120.832 78.4843V101.953M115.552 146.545C117.312 146.154 120.832 145.019 120.832 143.611" stroke="#E6E1E0" stroke-width="2" stroke-linecap="round" stroke-linejoin="round"/>
<path d="M91.4827 100.221C88.5351 98.1982 84.2464 101.59 81.5083 104.328C76.8145 110.43 82.6818 114.302 86.2021 115.475C86.9845 115.671 89.7359 114.875 90.896 113.715C96.0592 108.552 93.843 105.544 91.4827 103.154C92.0694 103.545 93.2562 101.437 91.4827 100.221Z" stroke="#E6E1E0" stroke-width="2" stroke-linecap="round" stroke-linejoin="round"/>
<path d="M86.802 56.1886C88.3666 55.4063 93.1387 53.8417 99.71 53.8417C106.281 53.8417 111.053 55.4063 112.618 56.1886" stroke="#E6E1E0" stroke-width="2" stroke-linecap="round" stroke-linejoin="round"/>
<path d="M83.2817 56.7753C81.5215 57.9488 80.9348 61.4691 81.5215 66.163H82.2154C84.4245 66.163 86.4889 64.2436 88.139 62.7748C89.9514 61.1616 93.2019 59.709 98.5367 59.709C104.905 59.709 108.663 61.2389 110.544 62.8336C111.776 63.8778 113.063 65.1958 114.646 65.5125L117.899 66.163C120.246 60.8824 117.508 57.1665 116.725 56.1886C115.552 45.0407 108.511 45.6275 107.338 42.1071C106.164 38.5867 104.991 38 103.23 38C101.47 38 100.297 41.5204 96.1897 42.1071C85.3939 44.454 83.0861 52.8638 83.2817 56.7753Z" fill="#E6E1E0" stroke="#E6E1E0" stroke-width="2" stroke-linecap="round" stroke-linejoin="round"/>
<circle cx="91.4959" cy="67.9232" r="4.86728" stroke="#E6E1E0" stroke-width="2"/>
<circle cx="105.577" cy="67.9232" r="4.86728" stroke="#E6E1E0" stroke-width="2"/>
<path d="M96.582 78.1135C97.95 79.071 102.644 78.1135 103.817 76.724" stroke="#E6E1E0" stroke-width="2" stroke-linecap="round"/>
<path fill-rule="evenodd" clip-rule="evenodd" d="M82.5673 67.2888C81.5803 67.8964 80.7612 69.057 80.7612 70.581C80.7612 72.4439 81.2884 73.6095 82.0565 74.3213C82.8384 75.0459 84.0289 75.4483 85.6451 75.4483H86.2632L86.5396 76.001C87.6497 78.2213 89.1506 80.0488 91.0982 81.3233C93.0412 82.5948 95.4826 83.3515 98.5365 83.3515C101.941 83.3515 104.691 82.7162 106.772 81.5142C108.833 80.3239 110.294 78.5465 111.099 76.132L111.327 75.4483H112.048C112.994 75.4483 114.397 75.2042 115.53 74.4704C116.604 73.7744 117.485 72.614 117.485 70.581C117.485 68.5061 116.624 67.5568 115.902 67.1778C115.513 66.9735 115.139 66.9186 114.88 66.943C114.759 66.9544 114.694 66.977 114.664 66.9909C114.397 67.4334 113.831 67.6033 113.361 67.3683C112.867 67.1213 112.667 66.5206 112.914 66.0267C113.283 65.2883 114.069 65.0107 114.693 64.9518C115.366 64.8884 116.125 65.036 116.831 65.4069C118.301 66.1781 119.485 67.8691 119.485 70.581C119.485 73.3347 118.224 75.108 116.617 76.1489C115.35 76.9697 113.905 77.3172 112.761 77.4164C111.763 79.9622 110.075 81.9162 107.773 83.246C105.298 84.6755 102.172 85.3515 98.5365 85.3515C95.1364 85.3515 92.3056 84.5036 90.0031 82.9968C87.873 81.6029 86.2413 79.6757 85.0292 77.4313C83.3517 77.3369 81.8352 76.8429 80.6971 75.7883C79.4075 74.5932 78.7612 72.8252 78.7612 70.581C78.7612 68.2912 80.004 66.5182 81.5189 65.5856C82.9711 64.6916 85.0077 64.4222 86.3522 65.7668C86.7428 66.1573 86.7428 66.7905 86.3522 67.181C85.9617 67.5715 85.3285 67.5715 84.938 67.181C84.5224 66.7653 83.617 66.6426 82.5673 67.2888ZM114.644 67.0027C114.644 67.0026 114.645 67.0016 114.647 66.9999C114.645 67.0019 114.644 67.0027 114.644 67.0027Z" fill="#E6E1E0"/>
<rect x="92.0994" y="65.2999" width="2.34691" height="4.69383" rx="1.17346" fill="#E6E1E0"/>
<rect x="103.834" y="65.2999" width="2.34691" height="4.69383" rx="1.17346" fill="#E6E1E0"/>
<path d="M99.7268 67.6469C96.7766 67.6469 96.1899 71.4435 99.1235 73.2037" stroke="#E6E1E0" stroke-width="2" stroke-linecap="round"/>
<path d="M96.7932 67.6469H101.487" stroke="#E6E1E0" stroke-width="2"/>
<path d="M110.875 66.4734H113.221" stroke="#E6E1E0" stroke-width="2" stroke-linecap="round"/>
<path d="M80.6035 124.249V136.533C80.6035 137.744 81.4591 138.785 82.6466 139.021V139.021C83.8793 139.265 84.7473 140.375 84.6867 141.63L82.8387 179.945C82.7535 181.712 81.4382 183.126 80.0049 184.161C78.0556 185.57 76.6518 188.058 77.6404 191.836C78.8324 196.72 100.884 194.007 100.884 192.921" stroke="#E6E1E0" stroke-width="2" stroke-linecap="round" stroke-linejoin="round"/>
<path d="M117.083 128.943L118.034 135.8C118.187 136.904 117.515 137.955 116.449 138.28V138.28C115.428 138.591 114.763 139.572 114.851 140.636L117.981 178.474C118.159 180.626 120.089 182.177 122.087 182.998C124.535 184.004 126.7 186.212 126.7 190.1C126.7 195.035 103.883 195.841 100.884 193.1" stroke="#E6E1E0" stroke-width="2" stroke-linecap="round" stroke-linejoin="round"/>
<path d="M91.4958 83.1781C89.6182 83.1781 89.1488 86.6985 89.1488 88.4587C86.8019 89.0454 80.3479 92.5657 75.0673 100.78C68.6822 110.712 69.7868 123.076 82.1081 123.076C86.8308 123.076 90.1267 117.208 89.1488 116.035M108.511 82.0046C109.919 82.9434 110.662 86.6985 110.858 88.4587C115.747 91.979 123.389 104.157 128.46 121.902C134.914 144.785 131.98 154.172 128.46 155.346C123.766 156.284 123.766 148.305 124.939 145.371C124.157 147.914 123.534 151.239 121.419 151.239C119.659 151.239 119.659 149.478 120.832 143.024C120.05 141.46 117.664 135.749 116.725 130.116" stroke="#E6E1E0" stroke-width="2" stroke-linecap="round" stroke-linejoin="round"/>
<path d="M87.9756 140.677C94.2722 141.788 108.01 141.788 111.445 140.677M101.141 142.343V196.417" stroke="#E6E1E0" stroke-width="2" stroke-linecap="round"/>
<path d="M76.8277 191.723C75.6542 192.114 73.4246 193.6 73.894 196.417C74.3634 199.233 79.7613 198.372 81.5215 197.59C82.8905 198.959 86.6847 200.876 90.9091 197.59C92.4737 198.959 98.654 200.876 101.47 197.59C103.23 199.155 108.511 201.345 110.858 197.59C113.009 199.155 116.49 201.345 120.246 197.59C123.179 198.764 128.108 200.172 129.046 196.417C129.985 192.662 128.264 191.332 127.286 191.136" stroke="#E6E1E0" stroke-width="2" stroke-linecap="round" stroke-linejoin="round"/>
<path d="M87.2422 176.615C89.4278 177.153 91.8566 178.081 94.1362 178.081" stroke="#E6E1E0" stroke-width="2" stroke-linecap="round"/>
<path d="M108.511 177.055C109.686 177.045 110.788 177.002 111.934 176.761C112.231 176.699 112.454 176.615 112.765 176.615" stroke="#E6E1E0" stroke-width="2" stroke-linecap="round"/>
<path d="M82.2549 184.242C84.0991 185.316 86.4438 187.123 88.66 187.176C89.8999 187.205 90.4898 186.921 91.4633 186.182C92.1018 185.697 92.8102 185.369 93.5494 185.122" stroke="#E6E1E0" stroke-width="2" stroke-linecap="round"/>
<path d="M109.978 184.389C112.022 185.834 114.99 188.582 117.565 186.866C118.356 186.338 119.241 185.992 120.009 185.424C120.357 185.166 120.585 184.667 120.979 184.535" stroke="#E6E1E0" stroke-width="2" stroke-linecap="round"/>
<path d="M89.0024 106.061C88.9924 106.31 88.9419 106.432 88.8557 106.647" stroke="#E6E1E0" stroke-width="2" stroke-linecap="round"/>
<path d="M90.9092 108.847V109.874" stroke="#E6E1E0" stroke-width="2" stroke-linecap="round"/>
<path d="M99.5635 84.7916C100.029 86.5382 100.004 88.5531 100.004 90.3655" stroke="#E6E1E0" stroke-width="2" stroke-linecap="round"/>
<path d="M100.004 91.2456C100.004 93.9217 99.8569 96.6867 99.8569 99.3131" stroke="#E6E1E0" stroke-width="2" stroke-linecap="round"/>
<path d="M107.924 99.1664C109.832 99.2166 111.736 99.3131 113.645 99.3131" stroke="#E6E1E0" stroke-width="2" stroke-linecap="round"/>
<path d="M98.6835 45.0408C96.9233 45.0408 95.1631 47.0429 95.1631 48.5611" stroke="#141312" stroke-width="2" stroke-linecap="round"/>
<path d="M92.346 46.3938C91.0106 46.785 90.4519 47.6927 90.2056 48.9683" stroke="#141312" stroke-width="2" stroke-linecap="round"/>
<path d="M85.1887 61.4692L85.7754 59.709" stroke="#141312" stroke-width="2" stroke-linecap="round"/>
<path d="M84.0151 56.1886C90.4691 52.0815 105.137 50.3213 115.698 56.7753" stroke="#141312" stroke-width="2" stroke-linecap="round"/>
<path d="M73.7474 88.0186C71.7726 88.0186 69.7978 88.0186 67.823 88.0186C66.9257 88.0186 67.1617 92.0361 67.1793 92.6798C67.307 97.3504 68.1154 101.464 70.1048 105.726C70.2383 106.013 70.4556 106.748 70.7567 106.949C70.9977 107.109 71.1644 107.259 71.2538 107.527" stroke="#E6E1E0" stroke-width="2" stroke-linecap="round"/>
<path d="M67.8801 86.8452C67.8801 85.2805 67.8273 83.5148 68.2468 82.0047C68.3602 81.5964 68.4871 80.7737 68.1001 80.4727C67.4643 79.9782 67 79.3299 67 78.4517C67 77.4797 67.2655 76.7241 68.4016 76.7241C69.4501 76.7241 72.2588 76.7241 73.3073 76.7241" stroke="#E6E1E0" stroke-width="2" stroke-linecap="round"/>
<path d="M121.859 84.0582H126.7" stroke="#E6E1E0" stroke-width="2" stroke-linecap="round"/>
<path d="M127.433 84.0582C127.707 89.156 127.112 94.4475 124.825 99.0198C124.056 100.558 123.66 102.165 122.886 103.714" stroke="#E6E1E0" stroke-width="2" stroke-linecap="round"/>
<path d="M122.886 77.3108C124.849 77.5745 126.553 78.6687 126.553 80.8149C126.553 81.7982 126.553 82.7815 126.553 83.7648" stroke="#E6E1E0" stroke-width="2" stroke-linecap="round"/>
<path d="M121.419 91.0989H127.433" stroke="#E6E1E0" stroke-width="2" stroke-linecap="round"/>
<path d="M128.46 90.9522C128.646 90.5302 130.229 88.3427 130.505 89.8603C130.636 90.5799 129.833 91.0989 129.193 91.0989" stroke="#E6E1E0" stroke-width="2" stroke-linecap="round"/>
<path d="M128.753 91.099C129.105 91.5092 129.255 92.2318 129.633 92.5658C129.895 92.7969 130.073 91.7868 130.073 91.6205C130.073 91.296 129.737 90.784 129.487 90.6589" stroke="#E6E1E0" stroke-width="2" stroke-linecap="round"/>
<path d="M128.02 91.5389C128.494 94.7203 128.556 98.0862 129.34 101.22" stroke="#E6E1E0" stroke-width="2" stroke-linecap="round"/>
<path d="M79.1746 84.9383C81.0603 84.9383 82.8708 84.3516 84.7485 84.3516" stroke="#E6E1E0" stroke-width="2" stroke-linecap="round"/>
<path d="M113.205 84.0582C114.736 84.0582 116.336 83.7988 117.605 84.645" stroke="#E6E1E0" stroke-width="2" stroke-linecap="round"/>
<path d="M122.593 142.144C125.22 141.582 127.893 140.761 130.562 140.417C131.078 140.35 131.271 140.368 131.687 140.091" stroke="#E6E1E0" stroke-width="2" stroke-linecap="round"/>
<path d="M129.633 145.665C129.633 147.854 129.633 150.043 129.633 152.233C129.633 152.807 129.879 153.903 129.34 154.172" stroke="#E6E1E0" stroke-width="2" stroke-linecap="round"/>
<rect x="26.875" y="93.4142" width="36.007" height="36.007" rx="3" transform="rotate(45 26.875 93.4142)" stroke="#CFC4C6" stroke-width="2"/>
<rect x="1" y="144" width="49" height="54" rx="3" stroke="#E6E1E0" stroke-width="2"/>
<mask id="path-52-inside-1_2289_203" fill="white">
<path fill-rule="evenodd" clip-rule="evenodd" d="M181 79C178.791 79 177 80.7909 177 83V148.385C177.039 148.456 177.077 148.53 177.113 148.606L198.93 194.534C199.685 196.122 199.295 197.857 198.23 198.994C200.332 198.874 202 197.132 202 195V83C202 80.7909 200.209 79 198 79H181Z"/>
</mask>
<path d="M177 148.385H175V148.897L175.246 149.346L177 148.385ZM177.113 148.606L178.92 147.748L178.92 147.748L177.113 148.606ZM198.93 194.534L200.737 193.676H200.737L198.93 194.534ZM198.23 198.994L196.77 197.626L193.354 201.273L198.343 200.99L198.23 198.994ZM179 83C179 81.8954 179.895 81 181 81V77C177.686 77 175 79.6863 175 83H179ZM179 148.385V83H175V148.385H179ZM175.246 149.346C175.267 149.384 175.287 149.423 175.307 149.464L178.92 147.748C178.867 147.637 178.812 147.529 178.754 147.423L175.246 149.346ZM175.307 149.464L197.124 195.392L200.737 193.676L178.92 147.748L175.307 149.464ZM197.124 195.392C197.499 196.181 197.317 197.042 196.77 197.626L199.689 200.361C201.272 198.671 201.871 196.063 200.737 193.676L197.124 195.392ZM200 195C200 196.065 199.166 196.937 198.117 196.997L198.343 200.99C201.498 200.812 204 198.199 204 195H200ZM200 83V195H204V83H200ZM198 81C199.105 81 200 81.8954 200 83H204C204 79.6863 201.314 77 198 77V81ZM181 81H198V77H181V81Z" fill="#CFC4C6" mask="url(#path-52-inside-1_2289_203)"/>
<path d="M172.298 147.904C173.389 145.642 176.611 145.642 177.702 147.904L199.911 193.947C200.871 195.939 199.42 198.25 197.208 198.25H152.792C150.58 198.25 149.129 195.939 150.089 193.947L172.298 147.904Z" stroke="#E6E1E0" stroke-width="2"/>
<rect x="1" y="1" width="200" height="198" stroke="#E6E1E0" stroke-width="2" stroke-linejoin="round"/>
</g>
<defs>
<clipPath id="clip0_2289_203">
<rect width="202" height="200" fill="white"/>
</clipPath>
</defs>
</svg>
