<svg width="202" height="200" viewBox="0 0 202 200" fill="none" xmlns="http://www.w3.org/2000/svg">
<g clip-path="url(#clip0_2289_131)">
<path d="M121 72L119.5 77L96.5 77C95.1193 77 94 75.8807 94 74.5C94 73.1193 95.1193 72 96.5 72L121 72Z" fill="#E6E1E0"/>
<path d="M92 62.5C90 70 93 77 91 78.5C89 80 88 80.5 88 83.5C88 85.9 90 87.1667 91 87.5C90.8187 89.8569 91.2784 93.6141 93.3444 96.8085C97.3634 103.023 106.243 102.451 113.5 101V101" stroke="#E6E1E0" stroke-width="2" stroke-linecap="round" stroke-linejoin="round"/>
<path d="M113.611 101C110.611 105.5 119.611 114.748 120.111 116.415C120.648 118.443 121.399 122.9 120.111 124.5C118.822 126.1 119.574 130.833 120.111 133" stroke="#E6E1E0" stroke-width="2" stroke-linecap="round" stroke-linejoin="round"/>
<path d="M147.46 74.4542C147.714 82.4658 147.652 84.4648 143.985 89.8547C145.297 90.562 148.073 93.582 148.676 100.004C152.794 101.631 163.077 109.951 171.259 130.211C179.44 150.472 183.521 165.271 184.539 170.138" stroke="#E6E1E0" stroke-width="2" stroke-linecap="round" stroke-linejoin="round"/>
<path d="M142 116C125.124 119.857 129.172 150.218 123.653 160.45C123.269 161.162 122.591 161.71 121.782 161.722C115.17 161.819 107.817 144.79 80.5 149.5C77 150.5 66 154.5 66 159C66 161.53 69 161.667 70 161.5C68.6648 162.613 68.1219 163.626 68.1069 164.629C68.0638 167.523 71.458 168.975 74.343 168.747C76.6892 168.562 79.499 168.222 82 168.5C86.0979 168.955 95.5 173.5 99 170.5C98.8479 170.804 98.7514 171.185 98.9192 171.774C99.6208 174.239 102.086 175.717 104.199 177.169C116.131 185.369 125.548 192.718 137.5 189.5C149.9 186.7 153.833 157.667 157.5 143.5" stroke="#E6E1E0" stroke-width="2" stroke-linecap="round" stroke-linejoin="round"/>
<rect x="92" y="65" width="4" height="19" rx="2" fill="#E6E1E0"/>
<path fill-rule="evenodd" clip-rule="evenodd" d="M151.853 58.5982C151.785 60.0509 151.601 61.3167 151.307 62.4185C153.576 65.2578 154.513 69.0528 153.511 72.8014L152.763 75.6001C152.327 77.23 150.894 78.4149 149.162 78.4664C144.047 78.6185 135.997 78.586 128.608 78.0448C128.86 77.4206 129 76.7285 129 76.0001C129 73.2386 126.985 71.0001 124.5 71.0001C122.015 71.0001 120 73.2386 120 76.0001C120 76.3787 120.038 76.7475 120.11 77.1021C119.904 77.0688 119.701 77.0348 119.5 77.0001C110.07 75.3703 96.21 69.5232 88.1646 63.2898C86.9516 62.35 86.4735 60.7937 86.8634 59.3347L87.7014 56.1989C88.7503 52.2738 91.6816 49.309 95.3114 47.9805C97.4372 36.3758 112.418 30.32 126.366 30.9392C151.368 36.0532 152.463 45.633 151.853 58.5982Z" fill="#E6E1E0"/>
<path d="M117 98.5C123.8 96.9 133.833 93.5 138 92M119.5 76.5C119.5 70 129.9 69.2 129.5 78C129.1 86.8 122.667 86.6667 119.5 85.5" stroke="#E6E1E0" stroke-width="2" stroke-linecap="round" stroke-linejoin="round"/>
<path d="M73 159.5C76.5 157.5 80 156 85 156M73 161C76.5 159 84 160.5 87 162" stroke="#E6E1E0" stroke-width="2" stroke-linecap="round" stroke-linejoin="round"/>
<path d="M72.5 161C74.5 159.5 78.5 158.5 82 158.5" stroke="#E6E1E0" stroke-width="2" stroke-linecap="round" stroke-linejoin="round"/>
<path d="M120.5 119.5C114 124 105.5 144 100 149" stroke="#E6E1E0" stroke-width="2" stroke-linecap="round" stroke-linejoin="round"/>
<path d="M17 27L24.5619 27L29.934 111H17L17 27Z" stroke="#E6E1E0" stroke-width="2"/>
<path d="M42 177V145C42 144.448 41.5523 144 41 144H2C1.44772 144 1 144.448 1 145V177" stroke="#E6E1E0" stroke-width="2"/>
<path d="M53 173V168C53 167.448 52.5523 167 52 167H47C46.4477 167 46 167.448 46 168V174" stroke="#E6E1E0" stroke-width="2" stroke-linecap="round" stroke-linejoin="round"/>
<path d="M63 173V168C63 167.448 62.5523 167 62 167H57C56.4477 167 56 167.448 56 168V173" stroke="#E6E1E0" stroke-width="2" stroke-linecap="round" stroke-linejoin="round"/>
<path d="M73 169V173M66 173V168.5C66 167.948 66.4477 167.5 67 167.5H69.5" stroke="#E6E1E0" stroke-width="2" stroke-linecap="round" stroke-linejoin="round"/>
<path d="M76 169.5V173M83 169V173" stroke="#E6E1E0" stroke-width="2" stroke-linecap="round" stroke-linejoin="round"/>
<path d="M86 169.5V173M93 174.5V171.5" stroke="#E6E1E0" stroke-width="2" stroke-linecap="round" stroke-linejoin="round"/>
<mask id="path-19-inside-1_2289_131" fill="white">
<path fill-rule="evenodd" clip-rule="evenodd" d="M26 111C26 110.448 25.5523 110 25 110H19C18.4477 110 18 110.448 18 111V134C18 134.552 17.5523 135 17 135C12.3669 135 8.55147 138.501 8.05476 143.002C7.99417 143.551 8.44772 144 9.00001 144H18H26H36C36.5523 144 37.0058 143.551 36.9453 143.002C36.4485 138.501 32.6331 135 28 135H27C26.4477 135 26 134.552 26 134V111Z"/>
</mask>
<path d="M36.9453 143.002L38.9332 142.782L36.9453 143.002ZM19 112H25V108H19V112ZM20 134V111H16V134H20ZM10.0427 143.221C10.4288 139.723 13.3978 137 17 137V133C11.336 133 6.67416 137.279 6.06683 142.782L10.0427 143.221ZM18 142H9.00001V146H18V142ZM26 142H18V146H26V142ZM36 142H26V146H36V142ZM28 137C31.6022 137 34.5712 139.723 34.9573 143.221L38.9332 142.782C38.3259 137.279 33.664 133 28 133V137ZM27 137H28V133H27V137ZM24 111V134H28V111H24ZM27 133C27.5523 133 28 133.448 28 134H24C24 135.657 25.3432 137 27 137V133ZM6.06683 142.782C5.85929 144.663 7.40961 146 9.00001 146V142C9.48584 142 10.1291 142.438 10.0427 143.221L6.06683 142.782ZM36 146C37.5904 146 39.1407 144.663 38.9332 142.782L34.9573 143.221C34.871 142.438 35.5142 142 36 142V146ZM16 134C16 133.448 16.4477 133 17 133V137C18.6569 137 20 135.657 20 134H16ZM25 112C24.4477 112 24 111.552 24 111H28C28 109.343 26.6569 108 25 108V112ZM19 108C17.3432 108 16 109.343 16 111H20C20 111.552 19.5523 112 19 112V108Z" fill="#E6E1E0" mask="url(#path-19-inside-1_2289_131)"/>
<path d="M45.5 176.5H92" stroke="#E6E1E0" stroke-width="2" stroke-linecap="round" stroke-linejoin="round"/>
<path d="M105 154.5C105.8 158.1 101.167 163.833 100.5 167M125 114C134.6 109.6 140.667 104.5 142.5 102.5" stroke="#E6E1E0" stroke-width="2" stroke-linecap="round" stroke-linejoin="round"/>
<path d="M127 163C130.6 166.2 130.833 167.333 130.5 167.5" stroke="#E6E1E0" stroke-width="2" stroke-linecap="round" stroke-linejoin="round"/>
<path d="M101 51C110.5 56.5 135 63.5 144.5 63M137 32C139.8 34.4 143.167 35.3333 144.5 35.5" stroke="#141312" stroke-width="2" stroke-linecap="round" stroke-linejoin="round"/>
<path d="M107.25 59.625C106.051 60.8949 105.51 62.4808 104.75 64" stroke="#141312" stroke-width="3" stroke-linecap="round"/>
<path d="M113.375 63.125C113.227 63.9009 113.06 64.6799 112.931 65.4583C112.889 65.7065 112.985 66.2577 112.75 66.375" stroke="#141312" stroke-width="3" stroke-linecap="round"/>
<path d="M143.75 67.875C144.004 68.765 144.375 69.3701 144.375 70.3472C144.375 70.6481 144.375 70.9491 144.375 71.25" stroke="#141312" stroke-width="3" stroke-linecap="round"/>
<path d="M148.375 67.125C148.522 67.2075 148.543 67.2526 148.625 67.375" stroke="#141312" stroke-width="3" stroke-linecap="round"/>
<path d="M112.5 48.5C114.767 46.7369 116.968 44.2661 119.5 43" stroke="#141312" stroke-width="3" stroke-linecap="round"/>
<path d="M123 49C124.139 47.861 125.64 46.7898 126.5 45.5" stroke="#141312" stroke-width="3" stroke-linecap="round"/>
<path d="M108 198V180" stroke="#E6E1E0" stroke-width="2" stroke-linecap="round" stroke-linejoin="round"/>
<path d="M142.094 27.2041C143.37 26.8933 144.718 27.0666 145.865 27.6888C148.248 28.9818 149.179 31.8567 147.988 34.2474L147.834 34.5576C147.111 36.0094 147.082 37.6957 147.755 39.1677L149.497 42.9774L120.177 31.1063L133.657 29.2607L142.094 27.2041Z" fill="#E6E1E0"/>
<rect x="1" y="1" width="200" height="198" stroke="#E6E1E0" stroke-width="2" stroke-linejoin="round"/>
</g>
<defs>
<clipPath id="clip0_2289_131">
<rect width="202" height="200" fill="white"/>
</clipPath>
</defs>
</svg>
